<svg id="Layer_1" enable-background="new 0 0 512 512" height="512" viewBox="0 0 512 512" width="512" xmlns="http://www.w3.org/2000/svg"><g id="XMLID_1_"><g id="XMLID_3609_"><g id="XMLID_1826_"><path id="XMLID_1827_" d="m427 306h10v102h-10z" fill="#ebeadf"/></g><g id="XMLID_1824_"><path id="XMLID_1825_" d="m381.2 352h102v10h-102z" fill="#ebeadf" transform="matrix(.707 .707 -.707 .707 379.017 -201.049)"/></g><g id="XMLID_1822_"><path id="XMLID_1823_" d="m381 352h102v10h-102z" fill="#ebeadf"/></g><g id="XMLID_1820_"><path id="XMLID_1821_" d="m427.2 306h10v102h-10z" fill="#ebeadf" transform="matrix(.707 .707 -.707 .707 379.056 -201.052)"/></g><path id="XMLID_1817_" d="m432.6 282.8c-41.2 0-74.6 33.4-74.6 74.6s33.4 74.6 74.6 74.6 74.6-33.4 74.6-74.6-33.4-74.6-74.6-74.6zm0 121.6c-26 0-47-21-47-47s21-47 47-47 47 21 47 47-21 47-47 47z" fill="#323d2c"/><path id="XMLID_1816_" d="m434.3 282.8c-4.6-.1-9.2.2-13.6.9-6.7 1.1-6 11 .8 11.1h1.1c39.4 1.1 71.5 33.2 72.6 72.5v1.1c.1 6.8 10 7.6 11.1.8.7-4.4 1-8.9.9-13.6-.9-39.6-33.2-71.9-72.9-72.8z" fill="#485143"/><path id="XMLID_1904_" d="m449.8 401.1c-6.6 2.6-13.9 3.7-21.5 3.1-22.4-2-40.5-20.1-42.5-42.5-.7-7.6.5-14.9 3.1-21.5.6-1.5.9-3.1.9-4.7 0-.1 0-.2 0-.3.4-15.2-20.8-19.7-26.5-5.5-3.8 9.4-5.7 19.7-5.3 30.5 1.4 38.8 33 70.4 71.8 71.8 10.8.4 21.1-1.5 30.5-5.3 14.1-5.7 9.7-26.9-5.5-26.5-.1 0-.2 0-.3 0-1.6 0-3.2.4-4.7.9z" fill="#1c2617"/><path id="XMLID_629_" d="m397.1 326.6c4.6-5.3 10.3-9.5 16.9-12.4l-13.7-24.1c-7.1 3.4-13.5 7.9-19.2 13.3z" fill="#1c2617"/><g id="XMLID_2215_"><path id="XMLID_2217_" d="m9.3 249.1-8.7-4.9 20.2-36c.4-.8 1.1-1.4 1.8-1.9l38-22.3 5.1 8.6-36.8 21.6z" fill="#323d2c"/></g><g id="XMLID_757_"><path id="XMLID_760_" d="m356.1 164.1-12.7-21.1h-34.4v-10h37.2c1.8 0 3.4.9 4.3 2.4l14.2 23.5z" fill="#323d2c"/></g><g id="XMLID_1911_"><path id="XMLID_1912_" d="m74 306h10v102h-10z" fill="#ebeadf"/></g><g id="XMLID_1909_"><path id="XMLID_1910_" d="m28.2 352h102v10h-102z" fill="#ebeadf" transform="matrix(.707 .707 -.707 .707 275.626 48.56)"/></g><g id="XMLID_1907_"><path id="XMLID_1908_" d="m28 352h102v10h-102z" fill="#ebeadf"/></g><g id="XMLID_1905_"><path id="XMLID_1906_" d="m74.2 306h10v102h-10z" fill="#ebeadf" transform="matrix(.707 .707 -.707 .707 275.647 48.574)"/></g><path id="XMLID_1901_" d="m79.6 282.8c-41.2 0-74.6 33.4-74.6 74.6s33.4 74.6 74.6 74.6 74.6-33.4 74.6-74.6-33.4-74.6-74.6-74.6zm0 121.6c-26 0-47-21-47-47s21-47 47-47 47 21 47 47-21 47-47 47z" fill="#323d2c"/><path id="XMLID_1914_" d="m96.8 401.1c-6.6 2.6-13.9 3.7-21.5 3.1-22.4-2-40.5-20.1-42.5-42.5-.7-7.6.5-14.9 3.1-21.5.6-1.5.9-3.1.9-4.7 0-.1 0-.2 0-.3.4-15.2-20.8-19.7-26.5-5.5-3.7 9.3-5.7 19.6-5.3 30.4 1.4 38.9 33 70.5 71.8 71.9 10.8.4 21.1-1.5 30.5-5.3 14.1-5.7 9.7-26.9-5.5-26.5-.1 0-.2 0-.3 0-1.6 0-3.2.4-4.7.9z" fill="#1c2617"/><path id="XMLID_625_" d="m79.7 282.8c-3.3 0-6.7.2-9.7.7v28c3-.7 6.3-1 9.7-1 26 0 47 21.3 47 47.3 0 3.5-.4 6.3-1.1 10.3h28c.4-4 .7-6.9.7-10.3-.1-41.4-33.4-75-74.6-75z" fill="#1c2617"/><path id="XMLID_1625_" d="m172.2 357.4h-93v-96.4h.4c51.1 0 92.6 41.5 92.6 92.6z" fill="#db3328"/><path id="XMLID_590_" d="m79.6 261h-.4v14h18.6c2.6 0 5.1.7 7.3 1.9 10 5.7 9.7 20.3-.5 25.6l-25.4 13.3v41.2h93v-3.4c0-51.2-41.5-92.6-92.6-92.6z" fill="#b5100b"/><path id="XMLID_1718_" d="m213.7 256-134.5 77v24.4h134.5z" fill="#c4c1ab"/><g id="XMLID_525_"><path id="XMLID_581_" d="m201 345h-99.8c-2.3 0-4.3-1.6-4.9-3.8s.5-4.5 2.5-5.6l85.7-45.5 4.7 8.8-67.9 36.1h79.7z" fill="#ebeadf"/></g><path id="XMLID_1720_" d="m172.2 192h122.8v165h-98.8l-34.1-101-137.1-86v-29h76.9l23.3 23z" fill="#84444d"/><path id="XMLID_523_" d="m25.2 170h40.5l137 79 43.2.1 27-36.1h22.1v144h-98.8l-34-101z" fill="#60262f"/><g id="XMLID_1716_"><path id="XMLID_1717_" d="m418.9 353.8-51.7-88.3 17.3-10.1 51.7 88.3c2.8 4.8 1.2 10.9-3.6 13.7-4.8 2.8-10.9 1.2-13.7-3.6z" fill="#c4c1ab"/></g><path id="XMLID_2231_" d="m172.2 192-47-28c0 13 6.9 25.1 18 31.7l29 17.3h61v-21z" fill="#323d2c"/><path id="XMLID_1719_" d="m346.6 213h-113.4v-21c0-12.4 8.9-23.1 21.2-25.3l61.9-11.2c15.8-2.9 30.4 9.3 30.4 25.3v32.2z" fill="#c4c1ab"/><path id="XMLID_519_" d="m315.9 155.4-61.7 11.2c-10.7 1.9-18.8 10.4-20.7 20.8 3.8-5.2 9.5-9 16.2-10.2l61.9-11.2c15.8-2.9 30.4 9.3 30.4 25.3v21.7h4v-32.2c0-16.1-14.3-28.2-30.1-25.4z" fill="#ebeadf"/><path id="XMLID_592_" d="m346.2 180.8c0-6.6-2.2-12.5-6.2-17l-38 24.9c-4.2 2.8-9.2 4.3-14.3 4.3h-8.4c-14.4 0-26.1-11.7-26.1-26.1-11.6 2.7-20 13-20 25.1v21h113z" fill="#747e6c"/><g id="XMLID_1713_"><path id="XMLID_1994_" d="m25 152h40v10h-40z" fill="#db3328"/></g><path id="XMLID_1723_" d="m340.2 80h17.9c11.6 0 22.6 4.7 30.7 13l86.4 89-16.7 30h-21.3l-103 122 6.3 50h-168.3l118.7-171 81.6-64.3z" fill="#db3328"/><path id="XMLID_1714_" d="m358.1 80 40.5 50.2c12.1 15 30.4 23.7 49.6 23.7l-59.4-61c-8-8.2-19.1-12.9-30.7-12.9z" fill="#c4c1ab"/><path id="XMLID_333_" d="m372.2 149c9.9 0 15.9-11 10.6-19.3l-31.9-49.7h-10.7z" fill="#b5100b"/><path id="XMLID_397_" d="m403.4 182-36.2 30-33 122 103-122z" fill="#b5100b"/><path id="XMLID_1715_" d="m418.9 212h39.6l-38.3-30h-16.8z" fill="#f3e630"/><path id="XMLID_758_" d="m240.2 357h69l-4-39h-47v16.5z" fill="#b5100b"/><path id="XMLID_2242_" d="m258.2 318 51 39 31.3 27h-168.3l61.2-88.2z" fill="#b5100b"/><g id="XMLID_2190_"><path id="XMLID_2250_" d="m314.7 221.6c-1.5 0-2.9-.7-3.9-1.9-1.7-2.2-1.3-5.3.8-7l69.5-54.6c2.2-1.7 5.3-1.3 7 .8 1.7 2.2 1.3 5.3-.8 7l-69.5 54.6c-.9.7-2 1.1-3.1 1.1z" fill="#e67368"/></g></g><g id="XMLID_3311_"><g id="XMLID_522_"><path id="XMLID_3225_" d="m190.7 362.4h-111.5c-1.3 0-2.6-.5-3.5-1.5-.9-.9-1.5-2.2-1.5-3.5v-24c0-1.8 1-3.4 2.5-4.3l91.3-52.6c1.3-.7 2.9-.9 4.3-.3 1.4.5 2.5 1.7 3 3.1l23.9 71.1c.5 1.5.3 3.1-.6 4.4l-3.8 5.5c-1 1.3-2.5 2.1-4.1 2.1zm-106.5-10h103.8l.9-1.3-21.2-63-83.5 48.1z" fill="#10121b"/></g><g id="XMLID_124_"><path id="XMLID_3222_" d="m458.5 217h-39.6c-1.9 0-3.6-1-4.4-2.7l-15.5-30c-.8-1.5-.7-3.4.2-4.9s2.5-2.4 4.3-2.4h16.8c1.1 0 2.2.4 3.1 1.1l38.3 30c1.7 1.3 2.3 3.6 1.6 5.6s-2.6 3.3-4.8 3.3zm-36.5-10h22l-25.6-20h-6.8z" fill="#10121b"/></g><g id="XMLID_129_"><path id="XMLID_3219_" d="m448.2 159c-20.9 0-40.4-9.3-53.5-25.6l-40.5-50.2c-1.2-1.5-1.4-3.6-.6-5.3s2.6-2.8 4.5-2.8h.1c12.8 0 25.3 5.3 34.2 14.4l59.4 61c1.4 1.4 1.8 3.6 1 5.4-.8 1.9-2.6 3.1-4.6 3.1zm-78.1-72 32.4 40.1c8.4 10.4 19.8 17.4 32.4 20.4l-49.6-51c-4.3-4.4-9.5-7.6-15.2-9.5z" fill="#10121b"/></g><g id="XMLID_128_"><path id="XMLID_3218_" d="m25 152h40v10h-40z" fill="#10121b"/></g><g id="XMLID_572_"><path id="XMLID_3217_" d="m356.1 164.1-12.7-21.1h-34.4v-10h37.2c1.8 0 3.4.9 4.3 2.4l14.2 23.5z" fill="#10121b"/></g><g id="XMLID_367_"><path id="XMLID_3212_" d="m309.2 362h-69.2v-10h63.7l-3-29h-42.7v-10h47.2c2.6 0 4.7 1.9 5 4.5l4 39c.1 1.4-.3 2.8-1.3 3.9-.9 1-2.3 1.6-3.7 1.6z" fill="#10121b"/></g><g id="XMLID_349_"><path id="XMLID_3027_" d="m79.5 436.8c-44 0-79.7-35.6-79.7-79.4 0-43.9 35.5-79.6 79.3-79.6 2.8 0 4.9 2.2 4.9 5v69.2h70.2c2.8 0 5 2.2 5 5 0 21.6-8.3 41.7-23.4 56.7-14.9 14.9-35 23.1-56.3 23.1zm-5.5-148.8c-36 2.6-64.3 32.7-64.3 69.4 0 38.3 31.3 69.4 69.8 69.4 37.4 0 67.1-27.8 69.6-64.8h-69.9c-2.8 0-5.2-2.2-5.2-5z" fill="#10121b"/></g><g id="XMLID_521_"><path id="XMLID_3024_" d="m79.5 409.2c-28.7 0-52.1-23.2-52.1-51.8 0-28.7 23.1-52 51.7-52 2.8 0 4.9 2.2 4.9 5v41.6h42.6c2.8 0 5 2.2 5 5 0 28.8-23.4 52.2-52.1 52.2zm-5.5-93.5c-21 2.5-36.7 20.2-36.7 41.7 0 23 18.9 41.8 42.2 41.8 21.5 0 39.4-16.2 41.9-37.2h-42.2c-2.8 0-5.2-2.2-5.2-5z" fill="#10121b"/></g><g id="XMLID_2161_"><path id="XMLID_2406_" d="m9.3 249.1-8.7-4.9 20.2-36c.4-.8 1.1-1.4 1.8-1.9l35.2-20.6 5.1 8.6-34 19.9z" fill="#10121b"/></g><g id="XMLID_518_"><path id="XMLID_2403_" d="m233.2 218h-61c-.9 0-1.8-.2-2.6-.7l-29-17.3c-12.6-7.5-20.5-21.3-20.5-36 0-1.8 1-3.5 2.5-4.3s3.5-.9 5 .1l45.8 27.3h59.6c2.8 0 5 2.2 5 5v21c.2 2.7-2 4.9-4.8 4.9zm-59.6-10h54.6v-11h-56c-.9 0-1.8-.2-2.6-.7l-37.9-22.6c2.4 7.3 7.3 13.7 14.1 17.7z" fill="#10121b"/></g><g id="XMLID_585_"><path id="XMLID_2400_" d="m432.6 437c-43.9 0-79.6-35.7-79.6-79.6 0-24.6 11.1-47.4 30.5-62.7 1.1-.9 2.6-1.2 4-1s2.7 1.1 3.4 2.4l32.3 55.2c.7 1.2 1.8 2 3 2.3 1.3.3 2.6.2 3.8-.5 2.4-1.4 3.2-4.5 1.8-6.8l-32.3-55.2c-.7-1.2-.9-2.7-.4-4.1s1.5-2.5 2.8-3c9.7-4.1 20.1-6.1 30.7-6.1 43.9 0 79.6 35.7 79.6 79.6s-35.7 79.5-79.6 79.5zm-47.3-130.7c-14.3 13.2-22.3 31.5-22.3 51.1 0 38.4 31.2 69.6 69.6 69.6s69.6-31.2 69.6-69.6-31.2-69.6-69.6-69.6c-7.3 0-14.5 1.1-21.4 3.4l29.3 50c4.2 7.1 1.8 16.3-5.4 20.5-3.5 2-7.5 2.6-11.4 1.6s-7.1-3.5-9.2-6.9z" fill="#10121b"/></g><g id="XMLID_630_"><path id="XMLID_2397_" d="m432.6 409.4c-28.7 0-52-23.3-52-52 0-14.5 6.1-28.4 16.8-38.2 1.1-1 2.6-1.5 4.1-1.3s2.8 1.1 3.6 2.4l18.2 31c.7 1.2 1.8 2 3 2.3 1.3.3 2.6.2 3.8-.5 2.4-1.4 3.2-4.5 1.8-6.8l-18.2-31c-.8-1.3-.9-2.9-.4-4.3s1.7-2.5 3.1-3c5.2-1.7 10.6-2.6 16.1-2.6 28.7 0 52 23.3 52 52s-23.2 52-51.9 52zm-32.8-78.3c-5.9 7.4-9.2 16.7-9.2 26.3 0 23.2 18.8 42 42 42s42-18.8 42-42-18.8-42-42-42c-2.3 0-4.6.2-6.9.6l14.8 25.2c4.2 7.1 1.8 16.3-5.4 20.5-3.5 2-7.5 2.6-11.4 1.6s-7.1-3.5-9.2-6.9z" fill="#10121b"/></g><g id="XMLID_379_"><path id="XMLID_2394_" d="m427.6 363.8c-1.3 0-2.6-.2-3.8-.5-3.9-1-7.1-3.5-9.2-6.9l-41.6-71c-1.1-1.8-.9-4.1.5-5.8l13.7-16.2c1-1.2 2.6-1.9 4.2-1.8s3.1 1.1 3.9 2.5l45.1 77.1c4.2 7.1 1.8 16.3-5.4 20.5-2.2 1.4-4.8 2.1-7.4 2.1zm-44.1-80.4 39.8 67.9c.7 1.2 1.8 2 3 2.3 1.3.3 2.6.2 3.8-.5 2.4-1.4 3.2-4.5 1.8-6.8l-41.6-71z" fill="#10121b"/></g><g id="XMLID_127_"><path id="XMLID_2391_" d="m290.9 218h-57.7c-2.8 0-5.2-2.2-5.2-5v-21c0-14.9 10.7-27.6 25.4-30.3l61.9-11.2c14.3-2.6 28.2 4.9 33.8 18.3.9 2.1.3 4.5-1.5 5.9l-53.6 42.2c-.9.7-2 1.1-3.1 1.1zm-52.9-10h51.2l49-38.6c-4.5-6.9-12.7-10.5-21.1-9l-62 11.2c-9.8 1.8-17.1 10.4-17.1 20.4z" fill="#10121b"/></g><g id="XMLID_517_"><path id="XMLID_2388_" d="m79.2 338.4c-.9 0-1.7-.2-2.5-.7-1.5-.9-2.5-2.5-2.5-4.3v-72.4c0-1.3.5-2.6 1.5-3.5s2.2-1.5 3.5-1.5h.4c28.3 0 55.1 12.2 73.7 33.6 1 1.1 1.4 2.6 1.2 4.1s-1.1 2.8-2.4 3.5l-70.3 40.5c-.9.5-1.7.7-2.6.7zm5-72.3v58.6l57.4-33c-15.3-15.3-35.8-24.5-57.4-25.6z" fill="#10121b"/></g><g id="XMLID_1852_"><path id="XMLID_1997_" d="m340.5 389h-168.3c-1.9 0-3.6-1-4.4-2.7-.9-1.6-.7-3.6.3-5.2l118.7-171c.3-.4.6-.8 1-1.1l78.5-61.9-30.6-65.1c-.7-1.5-.6-3.4.3-4.8s2.5-2.3 4.2-2.3h17.9c12.8 0 25.3 5.3 34.3 14.5l86.4 89c1.5 1.6 1.9 4 .8 5.9l-16.7 30c-.9 1.6-2.6 2.6-4.4 2.6h-19l-20.7 24.5-7.6-6.5 22.2-26.2c1-1.1 2.3-1.8 3.8-1.8h18.4l13.4-24.2-83.8-86.4c-7.1-7.3-16.9-11.5-27.1-11.5h-10l29 61.5c1 2.1.4 4.6-1.4 6.1l-81 63.9-112.9 162.7h153.1l-5.6-44.4c-.2-1.4.2-2.8 1.1-3.9l67.9-80.4 7.6 6.5-66.5 78.7 6.1 47.8c.2 1.4-.3 2.9-1.2 3.9s-2.3 1.8-3.8 1.8z" fill="#10121b"/></g><g id="XMLID_520_"><path id="XMLID_1996_" d="m194.5 356.9c-.2 0-.5 0-.7 0-1.9-.3-3.4-1.6-4-3.4l-31.8-94.2-46.4-29.1 5.3-8.5 47.9 30.1c1 .6 1.7 1.5 2.1 2.6l29.1 86.5 85.3-122.9h-48.1c-2.8 0-5.2-2.2-5.2-5v-16h-55.8c-.9 0-1.8-.2-2.6-.7l-47-28c-.3-.2-.7-.4-1-.7l-21.8-21.6h-69.8v21.2l69.5 43.5-5.3 8.5-71.8-45c-1.5-.9-2.4-2.5-2.4-4.2v-29c0-2.8 2.4-5 5.2-5h76.7c1.3 0 2.6.5 3.5 1.4l22.9 22.6 45.3 27h59.6c2.8 0 4.8 2.2 4.8 5v16h52.9c1.9 0 3.6 1 4.4 2.7.9 1.6.7 3.6-.3 5.2l-96.4 138.9c-1 1.3-2.5 2.1-4.1 2.1z" fill="#10121b"/></g></g></g></svg>