<svg id="Layer_3" enable-background="new 0 0 64 64" height="512" viewBox="0 0 64 64" width="512" xmlns="http://www.w3.org/2000/svg"><g><g><path d="m57 23-1-2 1-1h4l1 1.998-1 1.002z" fill="#f5b953"/></g><g><path d="m7 23 1-2-1-1h-4l-1 1.998 1 1.002z" fill="#f5b953"/></g><g><path d="m45 45.715 3 1.286 10-1v-3l-3-4v.154l-12.001 1.845-21.999.001-12-1.846-.001-.155-2.999 4.001v3l10 1 3-1.286 1-.715 1 2h22l1-2z" fill="#243242"/></g><g><path d="m59 45.222 1.109-.762c.557-.382.891-1.025.891-1.714v-8.746l-4.999 4.999-.252 1 2.251 3.001v3z" fill="#f2c351"/></g><g><path d="m5 45.222-1.109-.762c-.557-.382-.891-1.025-.891-1.714v-8.746l4.999 4.999.252 1-2.251 3.001v3z" fill="#f2c351"/></g><g><path d="m55 25-1.821-3.643c-.777-1.553-1.881-2.919-3.237-4.004l-.001-.001c-1.914-1.532-4.252-2.44-6.698-2.603l-11.243-.749-11.243.75c-2.446.163-4.784 1.071-6.698 2.603l-.001.001c-1.356 1.085-2.46 2.451-3.237 4.004l-1.821 3.642" fill="#c7e2fc"/></g><g><path d="m60 45v1.939c0 1.138-.895 2.061-2 2.061h-4c-1.105 0-2-.862-2-2" fill="#4d5d7a"/></g><g><path d="m4 45v1.939c0 1.138.895 2.061 2 2.061h4c1.105 0 2-.862 2-2" fill="#4d5d7a"/></g><g><path d="m58 49h-4c-1.105 0-2-.923-2-2.061" fill="#4d5d7a"/></g><g><path d="m9 25h46v12h-46z" fill="#f5b953"/></g><g><path d="m9.418 25 7.582 8 7 2h4l2-1h4l2 1h4l7-2 7.999-8.001 4.001 2.001 2 3v4l-5 5-13.001 1.999-21.999.001-13-2-5-5v-4l2-3 4-2z" fill="#f5b953"/></g><g><path d="m14 34-3.279 2.331-4-2.454.279-4.453z" fill="#c7e2fc"/></g><g><path d="m50 34 3.279 2.331 4-2.454-.279-4.453z" fill="#c7e2fc"/></g><g><path d="m5.434 46.733-2.109-1.449c-.83-.569-1.325-1.518-1.325-2.538v-9.2h2v9.2c0 .361.171.694.457.891l2.109 1.449z"/></g><g><path d="m9 24h45.999v2h-45.999z"/></g><g><path d="m10.721 37.331c-.181 0-.362-.049-.522-.147l-4-2.454c-.316-.194-.499-.546-.476-.915l.279-4.453c.022-.355.231-.672.55-.832.317-.16.697-.139.995.057l7 4.576c.277.181.446.487.453.817.006.331-.151.643-.421.834l-3.279 2.332c-.173.123-.376.185-.579.185zm-2.964-3.992 2.923 1.793 1.546-1.098-4.335-2.833z"/></g><g><path d="m53.279 37.331c-.203 0-.406-.062-.579-.185l-3.279-2.331c-.27-.191-.427-.504-.421-.834.007-.331.176-.637.453-.817l7-4.576c.297-.196.677-.217.995-.057s.527.476.55.832l.279 4.453c.023.369-.159.721-.476.915l-4 2.454c-.159.097-.341.146-.522.146zm-1.505-3.296 1.546 1.098 2.923-1.793-.134-2.138z"/></g><g><path d="m7.105 25.447-.723-1.447h-3.382c-.266 0-.521-.105-.708-.293l-1-1.001c-.304-.304-.379-.769-.187-1.154l1-1.999c.17-.339.516-.553.895-.553h4c.266 0 .52.105.707.293l1 1c.305.304.38.769.188 1.154l-.777 1.553.776 1.553zm-3.69-3.447h2.967l.401-.803-.197-.197h-2.968l-.401.802z"/></g><g><path d="m56.895 25.447-1.789-.895.776-1.552-.776-1.553c-.192-.385-.117-.85.188-1.154l1-1c.186-.188.44-.293.706-.293h4c.379 0 .725.214.895.553l1 1.999c.192.385.117.85-.187 1.154l-1 1.001c-.187.188-.442.293-.708.293h-3.382zm.723-3.447h2.967l.198-.198-.401-.802h-2.968l-.197.197z"/></g><g><path d="m16 48c-.033 0-.066-.001-.1-.005l-10-1c-.51-.051-.9-.481-.9-.995v-3c0-.216.07-.427.2-.6l2.999-4.001 1.6 1.199-2.799 3.735v1.762l8.843.884 6.764-2.898.787 1.838-7 3c-.124.054-.259.081-.394.081z"/></g><g><path d="m48 48c-.135 0-.27-.027-.394-.081l-7-3 .787-1.838 6.764 2.898 8.843-.884v-1.762l-2.8-3.733 1.6-1.2 3 4c.13.173.2.384.2.6v3c0 .514-.39.944-.9.995l-10 1c-.034.004-.067.005-.1.005z"/></g><g><path d="m21 42c-.051 0-.102-.004-.152-.012l-13-2c-.21-.032-.404-.131-.555-.281l-5-5c-.188-.187-.293-.442-.293-.707v-4c0-.197.059-.391.168-.555l2-3c.097-.145.229-.262.385-.34l4-2c.138-.069.292-.105.447-.105h.418c.274 0 .537.113.726.312l7.395 7.802 6.601 1.886h3.624l1.789-.895c.138-.069.292-.105.447-.105h4c.155 0 .309.036.447.105l1.789.895h3.624l6.615-1.89 7.816-7.818c.304-.305.77-.379 1.154-.188l4.001 2.001c.155.078.288.195.385.34l2 3c.11.164.169.358.169.555v4c0 .265-.105.52-.293.707l-5 5c-.15.15-.345.249-.555.281l-13.001 2c-.05.008-.101.012-.152.012zm-12.524-3.938 12.6 1.938h21.847l12.602-1.938 4.475-4.476v-3.283l-1.685-2.527-3.119-1.56-7.489 7.491c-.12.12-.269.208-.433.254l-7 2c-.088.026-.181.039-.274.039h-4c-.155 0-.309-.036-.447-.105l-1.789-.895h-3.527l-1.789.895c-.139.069-.293.105-.448.105h-4c-.093 0-.186-.013-.274-.039l-7-2c-.173-.049-.328-.144-.451-.273l-7.207-7.604-3.383 1.692-1.685 2.527v3.283z"/></g><g><path d="m58.566 46.733-1.133-1.648 2.109-1.449c.287-.196.458-.529.458-.89v-9.2h2v9.2c0 1.021-.495 1.97-1.324 2.539z"/></g><g><path d="m31 35.999h2v2h-2z"/></g><g><path d="m43 48h-22c-.379 0-.725-.214-.895-.553l-1-2 1.789-.895.724 1.448h20.764l.724-1.447 1.789.895-1 2c-.17.338-.516.552-.895.552z"/></g><g><path d="m10 50h-4c-1.654 0-3-1.373-3-3.061v-1.939h2v1.939c0 .585.448 1.061 1 1.061h4c.552 0 1-.476 1-1.061h2c0 1.688-1.346 3.061-3 3.061z"/></g><g><path d="m10 50h-4v-2h4c.552 0 1-.476 1-1.061h2c0 1.688-1.346 3.061-3 3.061z"/></g><g><path d="m58 50h-4c-1.683 0-3-1.318-3-3h2c0 .57.43 1 1 1h4c.552 0 1-.476 1-1.061v-1.939h2v1.939c0 1.688-1.346 3.061-3 3.061z"/></g><g><path d="m58 50h-4c-1.654 0-3-1.373-3-3.061h2c0 .585.448 1.061 1 1.061h4z"/></g><g><path d="m54.105 25.447-1.821-3.643c-.702-1.405-1.721-2.668-2.946-3.654-.008-.006-.015-.012-.022-.018-1.763-1.411-3.886-2.236-6.14-2.386l-11.176-.744-11.176.745c-2.254.15-4.377.976-6.14 2.386-.008.006-.016.012-.023.018-1.225.986-2.243 2.249-2.945 3.654l-1.821 3.643-1.789-.895 1.821-3.643c.835-1.67 2.047-3.169 3.506-4.337.008-.006.017-.013.025-.019 2.078-1.656 4.579-2.625 7.233-2.802l11.242-.75c.045-.003.088-.003.133 0l11.242.75c2.654.177 5.155 1.146 7.234 2.802.008.006.017.012.024.019 1.459 1.168 2.671 2.667 3.506 4.337l1.821 3.643z"/></g><g><path d="m28.199 18.5h8.602v2h-8.602z" transform="matrix(.814 -.581 .581 .814 -5.281 22.512)"/></g></g></svg>