<svg id="Layer_1" enable-background="new 0 0 512 512" height="512" viewBox="0 0 512 512" width="512" xmlns="http://www.w3.org/2000/svg" xmlns:xlink="http://www.w3.org/1999/xlink"><clipPath id="XMLID_3_"><path id="XMLID_2363_" d="m331 222h-75l-167.5-25.8 48.5-14.2h89.8c31.3 0 61.9 9.8 87.4 28z"/></clipPath><g id="XMLID_1_"><g id="XMLID_3638_"><path id="XMLID_1674_" d="m404.2 224h-42.2l-44.3-30c-24.9-17-54.3-26-84.4-26h-105.3l-123 37.5v13.5h11v43h-11v34l17.5 23h472.5v-23.8l12-27.3-23.1-17.3c-23-17.3-50.9-26.6-79.7-26.6z" fill="#db3328"/><path id="XMLID_1990_" d="m99 182h-16.9l-77.1 23.5 20.8.5z" fill="#485143"/><path id="XMLID_1988_" d="m296.6 182h-11.2l61.4 42h15.2l-44.3-30.1c-6.7-4.5-13.8-8.9-21.1-11.9z" fill="#747e6c"/><path id="XMLID_1670_" d="m495 319h-472.5l-17.5-23h490z" fill="#b5100b"/><path id="XMLID_1673_" d="m37.7 262h-21.7v-43h21.7l10.5 24.5z" fill="#b5100b"/><path id="XMLID_1672_" d="m331 222h-75l-167.5-25.8 48.5-14.2h89.8c31.3 0 61.9 9.8 87.4 28z" fill="#485143"/><path id="XMLID_1678_" d="m357 295.1-162.9-9.7-31-39 32.4-14.4 158.5 24c0 5.3-4.6 9.5-9.9 8.9l-136.7-15.5-12.1 6 16.9 16 137.2 15.2c4.3.4 7.6 4.1 7.6 8.5z" fill="#b5100b"/><g id="XMLID_1669_"><path id="XMLID_1708_" d="m476 263h31v10h-31z" fill="#ebeadf"/></g><circle id="XMLID_1871_" cx="93.1" cy="295.3" fill="#323d2c" r="48.7"/><path id="XMLID_1868_" d="m95.3 246.6c-4-.2-8 .1-11.8.9-4.3.8-3.5 7.1.8 7.1h.7c26.7 0 48.7 22 48.7 48.7v.7c-.1 4.3 6.2 5.1 7.1.8.7-3.8 1.1-7.7.9-11.8-1.1-25-21.4-45.3-46.4-46.4z" fill="#485143"/><path id="XMLID_1867_" d="m114.9 318.9c-24.3-1.5-43.9-21.2-45.5-45.5 0-.2 0-.4 0-.6-.5-8.9-11.9-12-16.9-4.6-5.6 8.3-8.6 18.5-8.1 29.3 1.2 24.9 21.4 45.2 46.4 46.4 10.9.5 21-2.6 29.3-8.1 7.4-5 4.3-16.4-4.6-16.9-.2 0-.4 0-.6 0z" fill="#1c2617"/><circle id="XMLID_1866_" cx="93.1" cy="295.3" fill="#747e6c" r="23.9"/><path id="XMLID_1864_" d="m95 271.4c-1.3-.1-2.6-.1-3.9 0-2.5.2-2.4 3.8.1 4h.3c11.2 1.1 20.3 10.2 21.4 21.4v.3c.2 2.5 3.8 2.5 4 .1.1-1.3.1-2.6 0-3.9-.9-11.6-10.3-21-21.9-21.9z" fill="#c4c1ab"/><path id="XMLID_1863_" d="m101.3 308c-11-1.2-19.8-10-21-21 0-.1 0-.2 0-.3-.5-4.7-6.8-5.9-8.9-1.7-1.7 3.6-2.5 7.7-2.2 12 .8 11.7 10.4 21.3 22.1 22.1 4.3.3 8.4-.5 11.9-2.2 4.3-2 3-8.4-1.7-8.9 0 0-.1 0-.2 0z" fill="#485143"/><path id="XMLID_1697_" d="m22 219h7.7v43h-7.7z" fill="#e67368"/><circle id="XMLID_1933_" cx="417.3" cy="295.3" fill="#323d2c" r="48.7"/><path id="XMLID_1932_" d="m439.1 318.9c-24.3-1.5-43.9-21.2-45.5-45.5 0-.2 0-.4 0-.6-.5-8.9-11.9-12-16.9-4.6-5.6 8.3-8.6 18.5-8.1 29.3 1.2 24.9 21.4 45.2 46.4 46.4 10.9.5 21-2.6 29.3-8.1 7.4-5 4.3-16.4-4.6-16.9-.2 0-.4 0-.6 0z" fill="#1c2617"/><circle id="XMLID_1931_" cx="417.1" cy="295.3" fill="#747e6c" r="23.9"/><path id="XMLID_1929_" d="m419.3 246.6c-4-.2-8 .1-11.8.9-4.3.8-3.5 7.1.8 7.1h.7c26.7 0 48.7 22 48.7 48.7v.7c-.1 4.3 6.2 5.1 7.1.8.7-3.8 1.1-7.7.9-11.8-1.1-25-21.4-45.3-46.4-46.4z" fill="#485143"/><path id="XMLID_1928_" d="m419 271.4c-1.3-.1-2.6-.1-3.9 0-2.5.2-2.4 3.8.1 4h.3c11.2 1.1 20.3 10.2 21.4 21.4v.3c.2 2.5 3.8 2.5 4 .1.1-1.3.1-2.6 0-3.9-.9-11.6-10.3-21-21.9-21.9z" fill="#c4c1ab"/><path id="XMLID_1927_" d="m425.3 308c-11-1.2-19.8-10-21-21 0-.1 0-.2 0-.3-.5-4.7-6.8-5.9-8.9-1.7-1.7 3.6-2.5 7.7-2.2 12 .8 11.7 10.4 21.3 22.1 22.1 4.3.3 8.4-.5 11.9-2.2 4.3-2 3-8.4-1.7-8.9 0 0-.1 0-.2 0z" fill="#485143"/><path id="XMLID_1938_" d="m256 230h75l31 2h87.5c-14.4-5-29.8-8-45.3-8h-.2-42l-31-2h-75l-167.6-25.8-83.4 9.3v8.6l83.5-6.8z" fill="#e67368"/><g id="XMLID_2364_" fill="#747e6c"><path id="XMLID_2349_" clip-path="url(#XMLID_3_)" d="m208.6 231.3h-17.9l-58-57.6h17.9z"/><path id="XMLID_1987_" clip-path="url(#XMLID_3_)" d="m262.7 231.3h-37.4l-58-57.6h37.3z"/></g><path id="XMLID_1671_" d="m195.2 212.7-20.4-3.2v-27.5h20.4z" fill="#323d2c"/><path id="XMLID_1000_" d="m5 205.5h20.8" fill="#485143"/></g><g id="XMLID_3340_"><g id="XMLID_393_"><path id="XMLID_3139_" d="m417.3 349c-29.6 0-53.7-24.1-53.7-53.7s24.1-53.7 53.7-53.7 53.7 24.1 53.7 53.7-24.1 53.7-53.7 53.7zm0-97.5c-24.1 0-43.7 19.6-43.7 43.7s19.6 43.7 43.7 43.7 43.7-19.6 43.7-43.7-19.6-43.7-43.7-43.7z" fill="#10121b"/></g><g id="XMLID_392_"><path id="XMLID_3136_" d="m93.1 349c-29.6 0-53.7-24.1-53.7-53.7s24.1-53.7 53.7-53.7 53.7 24.1 53.7 53.7-24.1 53.7-53.7 53.7zm0-97.5c-24.1 0-43.7 19.6-43.7 43.7s19.6 43.8 43.7 43.8 43.7-19.6 43.7-43.7-19.6-43.8-43.7-43.8z" fill="#10121b"/></g><g id="XMLID_386_"><path id="XMLID_3133_" d="m93.1 324.2c-15.9 0-28.9-13-28.9-28.9s13-28.9 28.9-28.9 28.9 13 28.9 28.9-13 28.9-28.9 28.9zm0-47.9c-10.4 0-18.9 8.5-18.9 18.9s8.5 18.9 18.9 18.9 18.9-8.5 18.9-18.9-8.5-18.9-18.9-18.9z" fill="#10121b"/></g><g id="XMLID_378_"><path id="XMLID_3130_" d="m417.1 324.2c-15.9 0-28.9-13-28.9-28.9s13-28.9 28.9-28.9 28.9 13 28.9 28.9-13 28.9-28.9 28.9zm0-47.9c-10.4 0-18.9 8.5-18.9 18.9s8.5 18.9 18.9 18.9 18.9-8.5 18.9-18.9-8.5-18.9-18.9-18.9z" fill="#10121b"/></g><g id="XMLID_1878_"><path id="XMLID_3129_" d="m495 324h-35.3v-10h30.3v-18.8c0-.7.1-1.4.4-2l10.4-23.7-19.9-14.9c-22-16.5-49.2-25.6-76.7-25.6h-42.2c-1 0-2-.3-2.8-.9l-44.3-30.1c-24.2-16.4-52.4-25.1-81.6-25.1h-104.6l-118.7 36.3v4.8h6c2.8 0 5 2.2 5 5v43c0 2.8-2.2 5-5 5h-6v27.3l15 19.7h25.6v10h-28.1c-1.6 0-3-.7-4-2l-17.5-23c-.7-.9-1-1.9-1-3v-34c0-2.8 2.2-5 5-5h6v-33h-6c-2.8 0-5-2.2-5-5v-13.5c0-2.2 1.4-4.1 3.5-4.8l123-37.5c.5-.1 1-.2 1.5-.2h105.3c31.2 0 61.4 9.3 87.2 26.8l43 29.2h40.7c29.6 0 59 9.8 82.7 27.6l23.1 17.3c1.9 1.4 2.5 3.9 1.6 6l-11.6 26.4v22.7c0 2.8-2.2 5-5 5z" fill="#10121b"/></g><g id="XMLID_1946_"><path id="XMLID_3128_" d="m303.2 314h71.6v10h-71.6z" fill="#10121b"/></g><g id="XMLID_1945_"><path id="XMLID_3127_" d="m135.5 314h147.7v10h-147.7z" fill="#10121b"/></g><g id="XMLID_394_"><path id="XMLID_3124_" d="m37.7 267h-21.7c-2.8 0-5-2.2-5-5v-43c0-2.8 2.2-5 5-5h21.8c2 0 3.8 1.2 4.6 3l10.5 24.5c.6 1.4.5 3.1-.2 4.4l-10.5 18.5c-1 1.6-2.7 2.6-4.5 2.6zm-16.7-10h13.8l7.8-13.8-8.1-19.2h-13.5z" fill="#10121b"/></g><g id="XMLID_437_"><path id="XMLID_3123_" d="m331 227h-75c-.3 0-.5 0-.8-.1l-100.5-15.5 1.5-9.9 100.2 15.5h59l-4.1-2.9c-24.8-17.7-54-27.1-84.5-27.1h-89.1l-26.2 7.7 24.8 3.8-1.5 9.9-47-7.2c-2.3-.4-4.1-2.3-4.2-4.6-.2-2.3 1.3-4.5 3.6-5.1l48.5-14.2c.5-.1.9-.2 1.4-.2h89.8c32.6 0 63.8 10 90.3 28.9l16.8 12c1.8 1.3 2.5 3.5 1.9 5.6-.8 2-2.7 3.4-4.9 3.4z" fill="#10121b"/></g><g id="XMLID_436_"><path id="XMLID_3120_" d="m195.2 217.7c-.3 0-.5 0-.8-.1l-20.4-3.1c-2.4-.4-4.2-2.5-4.2-4.9v-27.6c0-2.8 2.2-5 5-5h20.4c2.8 0 5 2.2 5 5v30.6c0 1.5-.6 2.8-1.7 3.8-.9.8-2.1 1.3-3.3 1.3zm-15.4-12.5 10.4 1.6v-19.8h-10.4z" fill="#10121b"/></g><g id="XMLID_438_"><path id="XMLID_3119_" d="m356.2 300.2-162.6-9.7c-1.4-.1-2.7-.8-3.6-1.9l-30.9-39c-1-1.2-1.3-2.8-.9-4.3s1.4-2.7 2.8-3.4l32.3-14.5c.9-.4 1.8-.5 2.8-.4l158.4 24-1.5 9.9-157-23.7-25 11.2 25.5 32.2 160.4 9.6z" fill="#10121b"/></g><g id="XMLID_439_"><path id="XMLID_3118_" d="m476 263h31v10h-31z" fill="#10121b"/></g></g></g></svg>