<svg id="Flat" height="512" viewBox="0 0 64 64" width="512" xmlns="http://www.w3.org/2000/svg"><path d="m32 40a1 1 0 0 0 -1 1v19h2v-19a1 1 0 0 0 -1-1z" fill="#d4edf4"/><path d="m42 61h-20a1 1 0 0 1 0-2h20a1 1 0 0 1 0 2z" fill="#e5f4f9"/><path d="m47.779 8.293h7v36h-7z" fill="#585858" transform="matrix(.966 -.259 .259 .966 -5.058 14.168)"/><path d="m-5.279 22.793h36v7h-36z" fill="#585858" transform="matrix(.259 -.966 .966 .259 -15.968 31.776)"/><path d="m50 8-6.761 1.812 4.832 18.032 3.097-15.487z" fill="#464849"/><path d="m14 8 6.761 1.812-4.832 18.032-3.097-15.487z" fill="#464849"/><path d="m50 8-5 25 4 15-14 2-3-6v-38h11z" fill="#585858"/><path d="m14 8 5 25-4 15 14 2 3-6v-38h-11z" fill="#585858"/><path d="m32 26-4-14v-8h8v9z" fill="#585858"/><path d="m28 12 4 14 4-13v-7h-8z" fill="#464849"/><path d="m32 26-2.909-16h5.818z" fill="#e5f4f9"/><g fill="#464849"><path d="m36 32a1 1 0 0 1 -1-1v-2a1 1 0 0 1 2 0v2a1 1 0 0 1 -1 1z"/><path d="m36 38a1 1 0 0 1 -1-1v-2a1 1 0 0 1 2 0v2a1 1 0 0 1 -1 1z"/><path d="m28 38a1 1 0 0 1 -1-1v-2a1 1 0 0 1 2 0v2a1 1 0 0 1 -1 1z"/><path d="m28 32a1 1 0 0 1 -1-1v-2a1 1 0 0 1 2 0v2a1 1 0 0 1 -1 1z"/><path d="m31 22v24c.4445-.8889 1-2 1-2l1 2v-24l-1 4z"/></g><path d="m43 6-4 7 2 4-9 9 4-22z" fill="#6e6e6e"/><path d="m21 6 4 7-2 4 9 9-4-22z" fill="#6e6e6e"/></svg>