<svg id="Layer_1" enable-background="new 0 0 51 51" height="512" viewBox="0 0 51 51" width="512" xmlns="http://www.w3.org/2000/svg"><g><g><path d="m48.84467 32.44668v1.02997c0 .22003-.14001.44-.44.61005l-26.26002 15.15997c-.58002.34003-1.51001.34003-2.09003 0l-16.62-8.94-.00995-1.75-1.22002-.70997-.04999-19.23004c0-.66998.46002-1.46997 1.03998-1.81l26.26001-15.15997c.29999-.17004.56-.19.75-.08002l1.19.70001.02002.01001h.01001c.19.10999.29999.33997.29999.66998l.06 19.22998 16.63 9.66003c.28998.17.43.38997.43.61z" fill="#ecf0f1"/></g><g><g><g><g><g><path d="m31.42283 2.2778c-.18946-.11196-.02548.10901-.31828.28123l-26.26184 15.16117c-.58129.33585-1.04634 1.14536-1.04634 1.81278l-.37496 19.02224-1.21427-.70618-.05598-19.23025c0-.66744.46505-1.47693 1.04634-1.81281l26.26183-15.16114c.2928-.16794.55976-.18515.74923-.07322z" fill="#3f434f"/></g></g><g><path d="m30.67494 2.34921c.58009-.33492 1.05174-.06614 1.05363.60041l.05452 19.22898-28.36338 16.3756-.05451-19.22898c-.00189-.66656.46669-1.47817 1.04676-1.81307z" fill="#5b5e71"/></g><g><g><path d="m3.42133 38.55455.00859 1.75251 16.62517 8.94158c.57701.33585 1.51138.33585 2.0927 0l26.26183-15.16117c.2928-.16793.43921-.39183.43921-.61143l-.00862-1.02728c0 .2196-.14641.43921-.43921.60712z" fill="#d4d6d6"/></g></g><g><g><path d="m3.42327 38.55353 16.62553 9.66171c.57631.33491 1.51347.33492 2.09355.00001l26.26023-15.16135c.58282-.33649.58587-.87933.00956-1.21424l-16.62553-9.6617z" fill="#ecf0f1"/></g></g><g><g><g><path d="m8.14034 41.80761-.00198.69791.60737.35067.00198-.69791z" fill="#c4c6c6"/></g></g><g><g><path d="m6.58857 40.9117-.00198.69791 1.07958.62329.00198-.69791z" fill="#c4c6c6"/></g></g><g><g><path d="m5.55465 40.31476-.00198.69791.60736.35066.00198-.69791z" fill="#c4c6c6"/></g></g><g><g><path d="m4.47333 39.69046-.00198.69791.60736.35066.00197-.69792z" fill="#c4c6c6"/></g></g></g><g><g><g><path d="m28.97549 26.6985c-.04622.02668-.04646.0724-.00056.09908l1.18688.68974c.0459.02667.12484.02668.17105 0l1.19133-.68781c.04951-.02858.04646-.0724.00056-.09908l-1.18688-.68974c-.0459-.02668-.12155-.02858-.17105 0z" fill="#525566"/></g></g><g><g><path d="m26.8898 27.90267c-.04951.02858-.04646.0724-.00056.09908l1.18688.68974c.0459.02667.12155.02858.17105 0l1.19135-.68783c.04619-.02667.04646-.0724.00056-.09908l-1.18688-.68974c-.0459-.02667-.12486-.02667-.17105 0z" fill="#525566"/></g></g><g><g><path d="m24.80084 29.10873c-.04622.02668-.04646.0724-.00056.09908l1.18688.68974c.0459.02668.12484.02668.17105 0l1.19464-.68973c.04619-.02667.04315-.07049-.00275-.09717l-1.18688-.68974c-.0459-.02667-.12155-.02858-.16774-.00191z" fill="#525566"/></g></g><g><g><path d="m30.17271 28.47238c-.04951.02858-.04974.0705-.00056.09908l1.1836.68783c.0459.02668.12155.02858.17105 0l2.12197-1.22512c.0495-.02858.04646-.0724.00056-.09908l-1.1836-.68783c-.04918-.02858-.12155-.02858-.17105 0z" fill="#525566"/></g></g><g><g><path d="m28.05403 29.6956c-.04619.02667-.04974.0705-.00056.09908l1.1836.68783c.0459.02667.12486.02667.17105 0l1.19135-.68783c.04951-.02858.04646-.0724.00056-.09908l-1.1836-.68783c-.04918-.02858-.12155-.02858-.17105 0z" fill="#525566"/></g></g><g><g><path d="m25.92216 30.92643c-.04622.02668-.04974.0705-.00056.09908l1.1836.68783c.0459.02667.12484.02668.17105 0l1.19464-.68973c.04619-.02667.04315-.07049-.00275-.09717l-1.1836-.68783c-.04918-.02858-.12155-.02858-.16774-.00191z" fill="#525566"/></g></g><g><g><path d="m23.79028 32.15727c-.04619.02667-.04974.0705-.00056.09908l1.1836.68783c.0459.02668.12486.02667.17105 0l1.19464-.68973c.04619-.02667.04646-.0724.00056-.09908l-1.1836-.68783c-.04918-.02858-.12486-.02667-.17105 0z" fill="#525566"/></g></g><g><g><path d="m21.6584 33.38811c-.04619.02667-.04972.07049-.00054.09907l1.1836.68783c.0459.02668.12484.02668.17103.00001l1.19466-.68974c.04619-.02667.04644-.07239.00054-.09906l-1.1836-.68783c-.04918-.02858-.12484-.02668-.17103-.00002z" fill="#525566"/></g></g><g><g><path d="m19.52983 34.61705c-.04951.02858-.04974.0705-.00056.09908l1.1836.68783c.0459.02667.12155.02858.17105 0l1.19135-.68782c.04619-.02667.04646-.07241.00056-.09908l-1.1836-.68783c-.04918-.02858-.12486-.02667-.17105 0z" fill="#525566"/></g></g><g><g><path d="m17.39796 35.84788c-.04951.02858-.04974.0705-.00056.09908l1.1836.68783c.0459.02667.12155.02858.17105 0l1.19133-.68781c.04622-.02668.04646-.0724.00056-.09908l-1.1836-.68783c-.04918-.02858-.12484-.02668-.17105 0z" fill="#525566"/></g></g><g><g><path d="m15.26608 37.07872c-.04951.02858-.04974.0705-.00056.09908l1.1836.68783c.0459.02668.12155.02858.17105 0l1.19135-.68783c.04951-.02858.04646-.0724.00056-.09908l-1.1836-.68783c-.04918-.02858-.12155-.02858-.17105 0z" fill="#525566"/></g></g><g><g><path d="m22.71515 30.31291c-.04948.02857-.04644.07239-.00054.09907l1.18688.68974c.0459.02667.12155.02858.17103.00001l1.19135-.68783c.04951-.02858.04646-.0724.00056-.09908l-1.18688-.68974c-.0459-.02668-.12155-.02858-.17105 0z" fill="#525566"/></g></g><g><g><path d="m20.62619 31.51897c-.04622.02668-.04646.0724-.00056.09908l1.18688.68974c.0459.02668.12484.02668.17105 0l1.19464-.68973c.04619-.02667.04646-.0724.00056-.09908l-1.18688-.68974c-.0459-.02667-.12486-.02667-.17105 0z" fill="#525566"/></g></g><g><g><path d="m18.54053 32.72313c-.04622.02668-.04646.0724-.00056.09908l1.18688.68974c.0459.02667.12484.02668.17105 0l1.19133-.68781c.04951-.02858.04646-.0724.00056-.09908l-1.18688-.68974c-.0459-.02667-.12155-.02858-.17105 0z" fill="#525566"/></g></g><g><g><path d="m16.45483 33.9273c-.04948.02857-.04644.07239-.00054.09907l1.18688.68974c.0459.02668.12155.02858.17103.00001l1.19135-.68782c.04619-.02667.04646-.07241.00056-.09908l-1.18688-.68974c-.0459-.02667-.12486-.02667-.17105 0z" fill="#525566"/></g></g><g><g><path d="m14.36588 35.13337c-.04622.02668-.04646.0724-.00056.09908l1.18688.68974c.0459.02668.12484.02668.17105 0l1.19464-.68972c.04619-.02667.04315-.0705-.00275-.09717l-1.18688-.68974c-.0459-.02667-.12155-.02858-.16774-.00191z" fill="#525566"/></g></g><g><g><path d="m12.28021 36.33752c-.04951.02858-.04646.07241-.00056.09908l1.18688.68974c.0459.02668.12155.02858.17105 0l1.19133-.68781c.04951-.02858.04646-.07241.00056-.09908l-1.18688-.68974c-.0459-.02668-.12155-.02858-.17105 0z" fill="#525566"/></g></g><g><g><path d="m10.19123 37.5436c-.04619.02667-.04646.07241-.00056.09908l1.18688.68974c.0459.02668.12486.02667.17105 0l1.19464-.68973c.04619-.02667.04646-.0724.00056-.09908l-1.18688-.68974c-.0459-.02668-.12486-.02667-.17105 0z" fill="#525566"/></g></g><g><g><path d="m12.31908 38.78017c-.04619.02667-.04974.0705-.00056.09908l1.1836.68783c.0459.02668.12486.02667.17105 0l2.12528-1.22703c.04948-.02857.04644-.07239.00054-.09907l-1.1836-.68783c-.04918-.02858-.12155-.02858-.17103-.00001z" fill="#525566"/></g></g><g><g><path d="m31.35346 30.25196c-.04622.02668-.04974.0705-.00056.09908l1.1836.68783c.04918.02858.12484.02668.17105 0l3.06579-1.77004c.0495-.02858.04974-.0705.00056-.09908l-1.1836-.68783c-.04918-.02858-.12155-.02858-.17105 0z" fill="#525566"/></g></g><g><g><path d="m29.05327 31.57998c-.04622.02668-.04974.0705-.00056.09908l1.1836.68783c.04918.02858.12484.02668.17105 0l1.19464-.68973c.04619-.02667.04643-.06859-.00275-.09717l-1.1836-.68783c-.04918-.02858-.12155-.02858-.16774-.00191z" fill="#525566"/></g></g><g><g><path d="m26.96758 32.78415c-.04948.02857-.04972.07049-.00054.09907l1.1836.68783c.04918.02858.12155.02858.17103.00001l1.19135-.68783c.04951-.02858.04974-.0705.00056-.09908l-1.1836-.68783c-.04918-.02858-.12155-.02858-.17105 0z" fill="#525566"/></g></g><g><g><path d="m24.87863 33.99021c-.04622.02668-.04974.0705-.00056.09908l1.1836.68783c.04918.02858.12484.02668.17105 0l1.19464-.68973c.04619-.02667.04974-.0705.00056-.09908l-1.1836-.68783c-.04918-.02858-.12486-.02667-.17105 0z" fill="#525566"/></g></g><g><g><path d="m22.79296 35.19437c-.04622.02668-.04974.0705-.00056.09908l1.1836.68783c.04918.02858.12484.02668.17105 0l1.19133-.68781c.04951-.02858.04974-.0705.00056-.09908l-1.1836-.68783c-.04918-.02858-.12155-.02858-.17105 0z" fill="#525566"/></g></g><g><g><path d="m20.70727 36.39854c-.04948.02857-.04972.07049-.00054.09907l1.1836.68783c.04918.02858.12155.02858.17103.00001l1.19135-.68782c.04619-.02667.04974-.0705.00056-.09908l-1.1836-.68783c-.04918-.02858-.12486-.02667-.17105 0z" fill="#525566"/></g></g><g><g><path d="m18.61831 37.60461c-.04622.02668-.04974.0705-.00056.09908l1.1836.68783c.04918.02858.12484.02668.17105 0l1.19464-.68973c.04619-.02667.04643-.06858-.00275-.09716l-1.1836-.68783c-.04918-.02858-.12155-.02858-.16774-.00191z" fill="#525566"/></g></g><g><g><path d="m14.44366 40.01484c-.04619.02667-.04974.0705-.00056.09908l1.1836.68783c.04918.02858.12486.02667.17105 0l3.32321-1.91866c.04951-.02858.04974-.0705.00056-.09908l-1.1836-.68783c-.04918-.02858-.12155-.02858-.17105 0z" fill="#525566"/></g></g><g><g><path d="m33.40263 31.44281c-.04622.02668-.04974.0705-.00056.09908l1.1836.68783c.04918.02858.12484.02668.17105 0l3.0658-1.77004c.0495-.02858.04974-.0705.00056-.09908l-1.1836-.68783c-.04918-.02858-.12154-.02858-.17105 0z" fill="#525566"/></g></g><g><g><path d="m33.83202 32.76382-11.71659 6.76512c-.04761.02594-.12118.03027-.17311 0l-1.18163-.68823c-.05194-.02594-.0476-.07354 0-.09954l11.71659-6.76507c.0476-.02594.1212-.03028.17314 0l1.18161.68818c.05193.03033.0476.0736-.00001.09954z" fill="#525566"/></g></g><g><g><path d="m12.74187 37.85454-1.19382.68751c-.04265.02667-.12257.02667-.17055 0l-1.18849-.68751c-.02134-.01597-.03198-.03197-.03198-.04798v-.21316c0 .01597.01064.03731.03198.04795l1.18849.69287c.04798.02664.12257.02664.17055 0l1.19382-.69287c.02664-.01064.03731-.03197.03731-.04795v.20786c0 .0213-.01067.03731-.03731.05328z" fill="#3f434f"/></g><g><path d="m12.2782 36.64471c-.02131-.01064-.03198-.02664-.03198-.04795v-.20786c0 .01601.01067.03198.03198.04798l1.18849.6875c.04798.02664.1226.03198.17055 0l1.19382-.6875c.02134-.01067.03198-.03197.03198-.04798v.2132c0 .01597-.01064.03198-.03198.04795l-1.19382.68754c-.04795.02664-.12257.02664-.17055 0z" fill="#3f434f"/></g><g><path d="m16.45661 34.23576c-.02667-.01067-.03731-.03197-.03731-.04798v-.21317c0 .02131.01064.03728.03731.05328l1.18315.68751c.04798.02664.12257.02664.17055 0l1.19382-.68751c.02134-.01067.03198-.03197.03198-.04798l.00533.20786c0 .02131-.01597.03731-.03731.05331l-1.19382.68751c-.04798.02664-.12257.02664-.17055 0z" fill="#3f434f"/></g><g><path d="m20.8855 35.40294 1.18849-.68754c.02664-.01064.03731-.03198.03731-.04795v.20783c0 .02134-.01067.03731-.03731.05331l-1.18849.6875c-.04798.02664-.1279.02664-.17055 0l-1.18319-.6875c-.02664-.01601-.03731-.03198-.03731-.05331v-.20783c0 .01597.01067.03198.03731.04795l1.18319.68754c.04265.02664.11723.03198.17055 0z" fill="#3f434f"/></g><g><path d="m20.94945 40.17823.00533.20253c0 .02134-.016.03731-.03731.04798l-3.06985 1.77473c-.04798.02668-.12257.02668-.17055 0l-1.18315-.6875c-.02667-.01597-.03731-.03198-.03731-.04795v-.2132c0 .01597.01064.03731.03731.04798l1.18315.6875c.04798.03198.12257.02664.17055 0l3.06985-1.76942c.01598-.01601.03198-.02664.03198-.04265z" fill="#3f434f"/></g><g><path d="m20.62436 31.82677c-.02134-.01067-.03201-.02664-.03201-.04798v-.20783c0 .01597.01067.03198.03201.04795l1.18849.68754c.04795.02664.12257.02664.17055 0l1.19382-.68754c.02664-.01597.03731-.03198.03731-.05328v.21317c0 .016-.01067.03731-.03731.04798l-1.19382.69284c-.04798.02664-.1226.02664-.17055 0z" fill="#3f434f"/></g><g><path d="m14.36739 35.44555c-.02664-.01597-.03731-.03197-.03731-.05328v-.20786c0 .016.01067.03731.03731.04798l1.18319.6875c.04795.02664.1279.02664.17055 0l1.19916-.6875c.02131-.01067.03198-.03198.03198-.04798v.2132c0 .01597-.01067.03197-.03198.04795l-1.19382.68754c-.04798.02664-.12794.02664-.17589 0z" fill="#3f434f"/></g><g><path d="m18.62042 37.91315c-.02667-.01064-.03731-.03197-.03731-.04795v-.20786c0 .01597.01064.03198.03198.04798l1.18849.68751c.04798.02664.12257.02664.17055 0l1.19382-.69284c.02134-.01067.03198-.02668.03198-.04798v.2132c0 .01597-.01064.03198-.03198.04795l-1.19382.68754c-.04798.02664-.12257.03198-.17055 0z" fill="#3f434f"/></g><g><path d="m18.50849 32.98329-.00533-.20783c0 .01597.016.03197.03731.04795l1.18849.6875c.04264.02668.1226.02668.17055 0l1.18852-.6875c.02664-.01597.03728-.03198.03728-.04795v.20783c0 .02134-.01064.03731-.03728.05331l-1.18852.6875c-.04795.02664-.1279.02664-.17055 0l-1.18849-.69284c-.02131-.01066-.03198-.03197-.03198-.04797z" fill="#3f434f"/></g><g><path d="m16.62183 37.86521 1.18849-.68754c.02664-.01597.03731-.03197.03731-.04795v.20786c0 .02131-.01067.03728-.03731.05328l-1.18849.68751c-.04798.02667-.1279.02667-.17055 0l-1.18319-.68751c-.02664-.016-.03731-.03197-.03731-.05328v-.20786c0 .01597.01067.03197.03731.04795l1.18319.68754c.04264.02664.11723.02664.17055 0z" fill="#3f434f"/></g><g><path d="m15.80105 38.55272-2.1265 1.2258c-.04795.02664-.1279.02664-.17055 0l-1.18315-.6875c-.02664-.016-.03731-.03197-.03731-.04798v-.21317c0 .01597.01067.03731.03731.04795l1.18315.68754c.04265.02664.1226.02664.17055 0l2.1265-1.22583c.02134-.01597.03198-.03197.03198-.04795v.20786c0 .0213-.01064.0373-.03198.05328z" fill="#3f434f"/></g><g><path d="m18.58311 36.84724-1.18319-.68751c-.02664-.016-.03731-.03197-.03731-.05328v-.20786c0 .01597.01067.03197.03731.04795l1.18319.68754c.04265.02664.11724.02664.17055 0l1.18849-.68754c.02664-.01064.03731-.03197.03731-.04795v.20786c0 .02131-.01067.03728-.03731.05328l-1.18849.68751c-.04798.02664-.1279.02664-.17055 0z" fill="#3f434f"/></g><g><path d="m19.12141 39.09634-3.32569 1.91864c-.04261.02664-.11724.02664-.17052 0l-1.18319-.69284c-.02131-.01067-.03198-.02664-.03198-.04798v-.20783c0 .01597.01067.03198.03198.04795l1.18319.68754c.05328.02664.1279.02664.17052 0l3.32569-1.91867c.02664-.01597.03731-.03197.03731-.04795v.20783c0 .016-.01067.03731-.03731.05331z" fill="#3f434f"/></g><g><path d="m21.89277 37.3962-1.18315-.68754c-.02664-.01597-.03731-.03197-.03731-.04795v-.2132c0 .016.01067.03731.03197.04798l1.18849.68751c.04798.03197.11727.03197.17055 0l1.18852-.68751c.02664-.01067.03731-.03197.03731-.04798v.2132c0 .01597-.01067.03197-.03731.04795l-1.18852.68754c-.05329.02664-.12257.02664-.17055 0z" fill="#3f434f"/></g><g><path d="m24.80273 29.41779c-.02664-.01064-.03731-.03198-.03731-.04795v-.2132c0 .02134.01067.03731.03731.05331l1.18319.68751c.04795.02664.1279.02664.17052 0l1.19386-.68751c.02664-.016.03728-.03198.03728-.04798v.20786c0 .02131-.01064.03731-.03197.04795l-1.19916.69287c-.04261.02664-.12257.02664-.17052 0z" fill="#3f434f"/></g><g><path d="m28.14973 33.78273-1.18319-.68751c-.02131-.016-.03731-.03197-.03731-.04798v-.21316c0 .01597.016.03731.03731.04795l1.18319.68754c.04795.03197.12257.03197.17052 0l1.19386-.68754c.02131-.01064.03731-.03197.03731-.04795v.20786c0 .02131-.01067.03728-.03731.05328l-1.19386.68751c-.04795.02664-.11724.02664-.17052 0z" fill="#3f434f"/></g><g><path d="m23.97665 36.19171-1.18319-.68751c-.02664-.016-.03728-.03197-.03728-.04798v-.2132c0 .02134.01064.03731.03728.04798l1.18319.69284c.04795.02664.12257.02664.17055 0l1.19382-.69284c.01597-.01067.03198-.02664.03198-.04264l.00533.20786c0 .01601-.016.03198-.03731.04798l-1.19382.68751c-.04798.02664-.1226.02664-.17055 0z" fill="#3f434f"/></g><g><path d="m25.14384 32.94598 1.19382-.69284c.02664-.01064.03731-.03197.03731-.04795v.20783c0 .02134-.01067.03731-.03731.05331l-1.19382.68751c-.04265.02664-.12257.02664-.17055 0l-1.18319-.68751c-.02131-.01067-.03728-.03197-.03728-.04798v-.21316c0 .02131.01064.03731.03728.05328l1.18319.68751c.04798.02667.12257.02667.17055 0z" fill="#3f434f"/></g><g><path d="m23.012 34.17711 1.19382-.69284c.02664-.01064.03731-.03197.03731-.04795v.20783c0 .02134-.01067.03731-.03731.05332l-1.19382.6875c-.04265.02664-.12257.02664-.17055 0l-1.18319-.6875c-.02131-.01601-.03728-.03198-.03728-.04798v-.21317c0 .02131.01064.03731.03728.05328l1.18319.6875c.04798.02668.12257.02668.17055.00001z" fill="#3f434f"/></g><g><path d="m26.06051 34.98722-1.18315-.6875c-.02134-.01601-.03198-.03198-.03198-.04798l-.00533-.21317c0 .02131.01597.03728.03731.05328l1.18315.6875c.04798.02668.1279.02668.17055 0l1.19382-.69284c.02667-.01067.03731-.03198.03731-.04795v.20783c0 .02134-.01064.03731-.03198.05332l-1.19916.6875c-.04263.02665-.11723.02665-.17054.00001z" fill="#3f434f"/></g><g><path d="m26.89192 28.2133c-.02664-.01597-.03731-.03198-.03731-.04795v-.2132c0 .016.01067.03731.03201.04798l1.18849.69284c.04795.02664.12257.02664.17055 0l1.19382-.68751c.02131-.016.03198-.03197.03198-.05331v.2132c0 .01597-.01067.03731-.03198.04795l-1.19382.68754c-.04798.03197-.1226.02664-.17055 0z" fill="#3f434f"/></g><g><path d="m22.71354 30.62228c-.02134-.01067-.03198-.03197-.03198-.04795v-.2132c0 .02131.01064.03731.03198.05328l1.18849.68754c.04798.02664.12257.02664.17055 0l1.19382-.68754c.02134-.01597.03197-.03198.03197-.04795v.20786c0 .01597-.01064.03728-.03197.04795l-1.19382.68754c-.04798.03198-.12257.02664-.17055 0z" fill="#3f434f"/></g><g><path d="m27.27567 31.71484 1.19382-.69284c.016-.01067.03198-.02131.03198-.03731l.00533.20253c0 .016-.01067.03198-.03731.04798l-1.19382.68751c-.04264.02664-.12257.02664-.17055 0l-1.18319-.68751c-.02131-.01067-.03728-.03198-.03728-.04798v-.21316c0 .02131.01064.03728.03728.05328l1.18319.68751c.04798.02667.12257.02667.17055-.00001z" fill="#3f434f"/></g><g><path d="m28.94384 26.96086-.00533-.2132c0 .02134.01597.03731.03731.04798l1.18849.69284c.04265.02664.12257.02664.17055 0l1.18849-.6875c.02667-.016.03731-.03198.03731-.05332v.2132c0 .016-.01064.03731-.03731.04798l-1.18849.68751c-.04798.02664-.1279.02664-.17055 0l-1.18849-.68751c-.02135-.01601-.03198-.03198-.03198-.04798z" fill="#3f434f"/></g><g><path d="m29.23696 30.69157-1.18319-.68751c-.02131-.01067-.03728-.03198-.03728-.04798v-.20786c0 .016.01064.03198.03728.04798l1.18319.6875c.04798.02667.12257.02667.17055 0l1.19382-.6875c.02131-.016.03198-.03198.03198-.05328l.00533.21316c0 .016-.016.03731-.03731.04798l-1.19382.68751c-.04265.02664-.12257.02664-.17055 0z" fill="#3f434f"/></g><g><path d="m33.83106 32.76479c.02664-.01601.03731-.03198.03731-.05332v.2132c0 .01601-.01067.03731-.03731.04798l-11.71443 6.76855c-.04798.02667-.1226.02667-.17055 0l-1.18848-.6875c-.02134-.01597-.03201-.03197-.03201-.05328v-.20786c0 .01597.01067.03731.03201.04795l1.18315.68754c.05328.03197.1279.02664.17589 0z" fill="#3f434f"/></g><g><path d="m30.23892 32.57823-1.18319-.6875c-.02664-.01597-.03728-.03198-.03728-.04795v-.2132c0 .01597.01064.03731.03198.04795l1.18849.68754c.04795.03197.12257.02664.17055 0l1.19382-.68754c.02131-.01597.03198-.03197.03198-.04795v.2132c0 .01597-.01067.03198-.03198.04261l-1.19382.69284c-.04798.02668-.1226.02668-.17055 0z" fill="#3f434f"/></g><g><path d="m31.52867 29.25791 2.12116-1.2258c.02134-.01067.03731-.03198.03731-.04798v.2132c0 .01597-.01064.03198-.03731.04798l-2.12116 1.2258c-.05328.02664-.1279.02664-.17055 0l-1.18315-.68754c-.02664-.01597-.03731-.03197-.03731-.05328v-.20786c0 .016.01067.03731.03197.04798l1.18849.68751c.04265.02663.11727.03197.17055-.00001z" fill="#3f434f"/></g><g><path d="m32.70652 31.03801 3.06451-1.76943c.02664-.016.03731-.03198.03731-.04798l.00533.20786c0 .02131-.016.03731-.03731.05328l-3.06985 1.76943c-.04264.02664-.1226.02664-.17055 0l-1.18319-.68751c-.02131-.016-.03728-.03198-.03728-.05328v-.20786c0 .01597.01597.03198.03728.04795l1.18319.68754c.04796.03197.12792.02664.17056 0z" fill="#3f434f"/></g><g><path d="m37.86023 30.40912v.21316c0 .016-.01067.03198-.03731.04798l-3.06451 1.76943c-.04795.02664-.12257.02664-.17055 0l-1.18316-.68754c-.02664-.01597-.03731-.03198-.03731-.04795v-.2132c0 .02131.01067.03731.03731.05328l1.18316.68754c.04798.02664.1226.02664.17055 0l3.06451-1.77476c.02664-.01066.03731-.03197.03731-.04794z" fill="#3f434f"/></g></g><g><g><path d="m16.49282 41.20569c-.04619.02667-.04974.0705-.00056.09908l1.1836.68783c.04918.02858.12486.02667.17105 0l3.06911-1.77195c.04619-.02667.04974-.0705.00056-.09908l-1.1836-.68783c-.04918-.02858-.12486-.02667-.17105 0z" fill="#525566"/></g></g><g><g><g><path d="m29.45084 24.63599c.44882-.25913 1.17907-.25913 1.62497 0l9.3114 5.4112c.4459.25913.44351.68212-.00531.94124l-21.81375 12.59418c-.44882.25913-1.17904.25912-1.62495-.00001l-9.3114-5.4112c-.4459-.25913-.44353-.68211.00529-.94123zm-12.14134 18.73513c.24591.14291.64722.1429.89472 0l21.81376-12.59418c.24752-.14291.24882-.37535.00292-.51826l-9.31141-5.4112c-.24591-.1429-.6472-.14291-.89473 0l-21.81375 12.59418c-.2475.14289-.24882.37535-.00292.51826z" fill="#d4d6d6"/></g></g></g></g><g><g><path d="m34.40219 39.96278-4.54801 2.64097c-.24914.14499-.54813.14499-.79273.00454l-2.89915-1.67604c-.26725-.14952-.26725-.53002-.00904-.68402l4.55254-2.64097c.2446-.14493.54813-.14493.79273-.00453l2.90365 1.67609c.26275.14946.26275.53001.00001.68396z" fill="#d4d6d6"/></g></g></g><g><g><g><path d="m8.5193 35.56072c.04787-.02829.11316-.02393.18714.01741.1545.08923.272.30683.272.48091l21.47618-12.42039c0-.17408-.1175-.39168-.26982-.47873-.07399-.04352-.14145-.04569-.18931-.01741z" fill="#3f434f"/></g></g><g><g><path d="m8.7072 35.57853c-.15143-.08743-.27134-.00794-.27183.16607l.54323.31363c.00049-.17401-.11857-.39146-.2714-.4797z" fill="#363a44"/></g></g></g></g><g><g><path d="m30.44236 3.9742-25.73879 32.34675-.04777-16.99788c0-.2091.22106-.5855.40029-.69304z" fill="#84dbff"/></g><g><path d="m30.4397 3.97661-25.7346 32.34379 25.78423-14.88629z" fill="#7ccfe8"/></g></g><g><g><path d="m16.29963 22.72805c.35988-.20778.65064-.04206.65181.37147.00116.41076-.2877.9139-.64758 1.12167-.35988.20778-.65067.0393-.65183-.37146-.00117-.41352.28773-.9139.6476-1.12168z" fill="#fff"/></g></g><g><g><path d="m10.93671 19.58634c.35988-.20777.65064-.04206.65181.37147.00116.41076-.2877.9139-.64758 1.12167s-.65066.0393-.65183-.37146c-.00117-.41353.28772-.91391.6476-1.12168z" fill="#fff"/></g></g><g><g><g><path d="m22.02836 13.04244 4.38488 3.59417 2.78184-4.74939.37828.2268-3.2016 5.47077-4.37501-3.58298-5.68537 9.98308-5.34564-3.41146-4.93411 8.09252-.3685-.24935 5.32462-8.73501 5.33091 3.39741z" fill="#fff"/></g></g><g><g><path d="m26.43735 16.28201c.35988-.20778.65064-.04206.65181.37147.00116.41076-.2877.9139-.64758 1.12167-.35988.20778-.65067.0393-.65183-.37146-.00117-.41352.28772-.9139.6476-1.12168z" fill="#fff"/></g></g><g><g><path d="m22.03487 12.78928c.35987-.20778.65064-.04206.65181.37147.00117.41076-.2877.9139-.64758 1.12167s-.65067.0393-.65183-.37146c-.00117-.41352.28772-.9139.6476-1.12168z" fill="#fff"/></g></g><g><g><path d="m29.40233 11.25925c.35988-.20777.65064-.04206.65181.37147.00116.41076-.2877.9139-.64758 1.12167-.35987.20778-.65066.0393-.65183-.37146-.00117-.41353.28773-.91391.6476-1.12168z" fill="#fff"/></g></g><g><g><path d="m5.89634 27.69119c.35988-.20778.65064-.04206.65181.37147.00116.41076-.2877.9139-.64758 1.12167-.35988.20778-.65066.0393-.65183-.37146-.00117-.41352.28772-.91391.6476-1.12168z" fill="#fff"/></g></g></g></g></g></svg>