<svg id="Layer_1" enable-background="new 0 0 50 50" height="512" viewBox="0 0 50 50" width="512" xmlns="http://www.w3.org/2000/svg"><g><g><g><g><g><g><g enable-background="new"><g><path d="m19.33735 39.18761c-.6861.3986-1.3722.7974-2.0582 1.1961-.5531-.3193-.9991-1.0918-.9973-1.7276l2.0581-1.1961c-.0018.6358.4442 1.4083.9974 1.7276z" fill="#40545d"/></g><g><path d="m17.27915 40.38371 2.0582-1.1961 13.2751 7.6644-2.0581 1.1961z" fill="#40545d"/></g><g><path d="m33.32465 46.92211-2.0582 1.1961c-.1819.1057-.4338.0906-.7121-.0701l2.0581-1.1961c.2784.1607.5303.1758.7122.0701z" fill="#40545d"/></g><g><path d="m31.65726 12.54001 2.05809-1.1961-.09899 34.9359-2.0582 1.1961z" fill="#fff"/></g><g><path d="m33.32465 46.92211-2.0582 1.1961c.1796-.1044.2908-.3265.2917-.6423l2.0582-1.1961c-.00089.3159-.1122.5379-.2917.6423z" fill="#fff"/></g><g><path d="m16.38085 3.72021 2.0582-1.1961-.0991 34.9359-2.0581 1.1961z" fill="#40545d"/></g><g><path d="m18.73075 1.88171c-.1795.1044-.2908.3265-.2917.6424l-2.0582 1.1961c.0009-.3159.1122-.538.2918-.6424.6174-.3588 1.4407-.8372 2.0581-1.1961z" fill="#40545d"/></g><g><path d="m16.67255 3.07781 2.0582-1.196c.1819-.1057.4338-.0907.7122.07l-2.0582 1.1961c-.2784-.1607-.5303-.1757-.7122-.0701z" fill="#fff"/></g><g><path d="m17.38475 3.14791 2.05821-1.1961 4.52439 2.6122-2.0581 1.1961z" fill="#fff"/></g><g><path d="m26.86685 7.05441-2.0582 1.1961c-.2007.1166-.4823.0997-.7897-.0778-.3667-.2117-.6955-.6088-.8935-1.0378-.2784-.6044-.7439-1.1021-1.2162-1.3748l2.0581-1.1961c.4724.2727.9379.7705 1.2163 1.3748.198.429.5268.8261.8934 1.0378.3074.1775.5891.1944.7898.0778z" fill="#fff"/></g><g><path d="m26.97355 6.97221c-.0323.0322-.068.0597-.1067.0822l-2.0582 1.1961c.0387-.0225.0744-.05.1067-.0822.686-.3987 1.3721-.7974 2.0582-1.1961z" fill="#40545d"/></g><g><path d="m27.10386 6.87161c-.0468.0272-.0904.0606-.1303.1006-.6861.3987-1.3722.7974-2.0582 1.1961.0399-.04.0835-.0734.1303-.1007.61749-.3588 1.44069-.8372 2.0582-1.196z" fill="#40545d"/></g><g><path d="m25.04565 8.06761 2.0582-1.196c.2832-.1646.6844-.1016 1.0897.1324l-2.0582 1.1961c-.4053-.234-.8065-.297-1.0897-.1325z" fill="#fff"/></g><g><path d="m30.65985 10.81231c.5531.3194.9992 1.0919.9974 1.7277l-.0991 34.9359c-.0018.6358-.4507.8916-1.0038.5722l-13.2752-7.6644c-.5531-.3193-.9991-1.0918-.9973-1.7276l.099-34.9359c.0018-.6358.4507-.8916 1.0039-.5723l4.5245 2.6122c.4723.2727.9378.7704 1.2162 1.3748.198.429.5268.8261.8935 1.0378.3666.2117.6966.195.8964-.0044.2809-.2814.7477-.2409 1.22.0318z" fill="#fff"/></g><g><path d="m30.65985 10.81231 2.0582-1.1961c.5531.3194.9992 1.0919.9973 1.7277l-2.0581 1.1961c.0018-.6358-.4443-1.4083-.9974-1.7277z" fill="#fff"/></g><g><path d="m26.13535 8.20011 2.0582-1.1961 4.52451 2.6122-2.05821 1.1961z" fill="#fff"/></g><g><path d="m34.35215 11.70691-.0973 34.9357c-.0097.5162-.1849.876-.4867 1.0514l-2.0539 1.1973c.292-.1749.477-.5352.477-1.0514l.0973-34.9357c.0097-1.0319-.7301-2.2976-1.6256-2.8233l-13.2775-7.6604c-.4477-.2629-.8663-.2824-1.1583-.117l2.0539-1.1973c.3017-.1654.7106-.1459 1.1681.117l13.2677 7.6609c.9053.5252 1.6353 1.7909 1.6353 2.8228z" fill="#cfd8dd"/></g></g></g><g><path d="m30.66195 10.08391c.9011.5203 1.6321 1.7864 1.6292 2.8221l-.0991 34.9359c-.0029 1.0356-.7387 1.4549-1.6398.9346l-13.2752-7.6644c-.9011-.5203-1.6321-1.7864-1.6292-2.822l.0991-34.9359c.0029-1.0357.7386-1.455 1.6398-.9347zm.89621 37.392.099-34.9359c.0018-.6358-.4442-1.4083-.9973-1.7277l-4.5245-2.6122c-.4723-.2727-.9391-.3132-1.22-.0318-.1998.1994-.5298.2161-.8965.0044-.3666-.2117-.6954-.6088-.8934-1.0378-.2784-.6043-.7439-1.1021-1.2163-1.3748l-4.5245-2.6122c-.5531-.3193-1.002-.0635-1.0038.5723l-.099 34.9359c-.0018.6358.4442 1.4083.9973 1.7276l13.2752 7.6644c.55309.3194 1.00199.0636 1.0038-.5722" fill="#485f69"/></g></g><g><g enable-background="new"><g><path d="m33.71415 18.63761c.1886-.1089.3488-.0217.3494.1949l.006 2.1301c.0006.221-.1585.4925-.3471.6014-.1922.111-.3487.0217-.3494-.1993l-.006-2.13c-.00059-.2167.1549-.4861.3471-.5971z" fill="#485f69"/></g></g><g enable-background="new"><g fill="#56707b"><path d="m33.06535 17.79351c-.0625-.0338-.1023-.1134-.1023-.2272l-.0056-2.1248c0-.2158.1533-.483.3465-.5967.0966-.0569.1818-.0624.25-.0225l.3523.21c-.0569-.0114-.1307 0-.2045.0455-.1876.1138-.3467.3806-.3467.5968l.0057 2.1248c0 .1134.0398.193.1023.2272z"/><path d="m33.91755 18.59471c-.0568-.0113-.1306 0-.2045.0455-.1932.108-.3466.3751-.3466.5965l.0057 2.1306c0 .1082.0398.182.1023.2217l-.3978-.2328c-.0624-.0399-.1022-.1137-.1022-.2216l-.0057-2.1307c0-.2161.1534-.4885.3466-.5967.0966-.0566.1818-.0624.2443-.0227z"/></g><g><path d="m33.70406 15.07781c.1887-.1089.3488-.0217.3494.1952l.006 2.1258c.0007.225-.1584.4965-.3471.6054-.1922.111-.3487.0217-.3494-.2033l-.006-2.1258c-.00061-.2169.1549-.4863.3471-.5973z" fill="#485f69"/></g></g></g></g></g></g><g><g><path d="m20.86185 5.61971c.2688.1552.5372.4279.7412.7812.0308.0526.0307.1093-.0004.127-.0152.0087-.0351.0059-.0551-.0056-.02-.0116-.04-.0319-.0555-.0582-.1734-.3008-.4019-.533-.6306-.6651s-.4578-.164-.6323-.0641c-.0156.0089-.036.0052-.0557-.0062-.0198-.0114-.0402-.0313-.0556-.058-.0302-.0531-.03-.1098.0003-.1271.2057-.1168.4749-.0791.7437.0761z" fill="#e2ac2f"/></g><g><path d="m20.85995 6.33871c.1084.0626.2168.1726.2993.3151.0302.0531.03.1097-.0004.127-.0155.0089-.0353.0064-.0557-.0054-.0197-.0114-.0401-.0321-.0549-.0584-.0519-.09-.1203-.1595-.1888-.199-.0685-.0396-.1371-.0492-.1894-.0194-.0152.0091-.0353.0064-.0554-.0052s-.0401-.0321-.0552-.0586c-.0302-.0523-.03-.109.0004-.1271.083-.0469.1916-.0317.3001.031z" fill="#e2ac2f"/></g><g><path d="m20.85845 6.71441c.0747.0431.1351.1469.1348.2327-.0002.0858-.061.1204-.1356.0773-.0747-.0431-.1344-.1473-.1341-.2331.0002-.0858.0603-.12.1349-.0769z" fill="#e2ac2f"/></g><g><path d="m20.86055 5.97871c.1973.1139.3823.309.5206.5486.0301.0523.03.1097-.0004.1271-.0155.0088-.0353.0063-.055-.005-.0204-.0118-.0401-.0321-.0556-.0589-.1088-.1885-.2544-.3422-.4101-.4321-.1549-.0895-.3009-.1041-.4105-.0416-.0152.0086-.0353.0057-.0553-.0059-.0201-.0116-.0402-.0319-.0553-.058-.0309-.0527-.0307-.1101.0004-.1271.1392-.0793.3247-.0606.5212.0529z" fill="#e2ac2f"/></g></g><g><g><path d="m18.01565 30.91201.1328.2398-.0046 1.597-.1336.0854-.9488-.5477-.14089-.2441.00449-1.5969.1419-.0813z" fill="#dde4e7"/></g><g><path d="m19.41385 31.71921.141.2446-.0045 1.597-.1419.0807-.9405-.543-.141-.244.0046-1.597.1419-.0812z" fill="#dde4e7"/></g><g><path d="m20.11465 34.48051.1326.2393-.0045 1.5969-.1336.0861-.9487-.5478-.1411-.2446.0046-1.5969.1419-.0807z" fill="#dde4e7"/></g><g><path d="m20.82035 32.53131.14101.2446-.00451 1.5969-.142.0807-.9487-.5477-.141-.2441.0045-1.597.1419-.0812z" fill="#dde4e7"/></g><g><path d="m21.51275 35.28771.14101.2441-.00451 1.597-.142.0812-.9404-.5429-.141-.2446.00451-1.597.14199-.0807z" fill="#dde4e7"/></g><g><path d="m22.91925 36.09981.14101.2441-.00451 1.5969-.142.0812-.9487-.5477-.141-.2446.0045-1.597.14191-.0807z" fill="#dde4e7"/></g><g><path d="m26.43795 35.77461.1327.2398-.0046 1.5969-.13359.0855-.9487-.5477-.14101-.2441.0045-1.597.1419-.0812z" fill="#dde4e7"/></g><g enable-background="new"><g><path d="m22.91255 38.45211.141.2441-.00449 1.597-.14201.0812-.9487-.5478-.141-.2445.0045-1.597.1419-.0807z" fill="#dde4e7"/></g><g><path d="m24.31905 39.26421.141.244-.0045 1.597-.142.0812-.9487-.5477-.141-.2446.0045-1.597.1419-.0807z" fill="#dde4e7"/></g><g><path d="m27.18405 43.12121.141.2446-.0046 1.5969-.1419.0807-5.2264-3.0175-.141-.244.0045-1.597.1419-.0812z" fill="#dde4e7"/></g><g><path d="m25.71715 40.07141.1411.2441-.0045 1.5969-.142.0813-.9405-.543-.1409-.2446.0045-1.5969.1419-.0808z" fill="#dde4e7"/></g><g><path d="m25.72385 37.71901.141.2441-.0045 1.597-.1419.0812-.9405-.543-.141-.2445.0046-1.597.1419-.0807z" fill="#dde4e7"/></g></g><g><path d="m24.32565 36.91181.1411.2441-.0046 1.5969-.1419.0813-.9488-.5478-.1409-.2446.0045-1.5969.14191-.0808z" fill="#dde4e7"/></g><g><path d="m25.03145 34.96261.141.2445-.0045 1.597-.1419.0807-.94879-.5478-.14101-.244.0045-1.597.142-.0812z" fill="#dde4e7"/></g><g><path d="m27.12365 40.88341.14111.2441-.00461 1.597-.1419.0812-.9488-.5478-.141-.2446.00451-1.5969.14199-.0807z" fill="#dde4e7"/></g><g><path d="m27.13035 38.53111.141.2441-.00449 1.5969-.142.0812-.9487-.5477-.14101-.2446.0045-1.597.1419-.0807z" fill="#dde4e7"/></g><g><path d="m27.83605 36.58181.1411.2446-.00459 1.5969-.14191.0807-.9404-.5429-.14109-.2441.00459-1.5969.1419-.0812z" fill="#dde4e7"/></g><g><path d="m18.70815 33.66851.141.2441-.0046 1.5969-.1419.0813-.9487-.5478-.14099-.2446.00449-1.597.1419-.0807z" fill="#dde4e7"/></g><g><path d="m20.10176 39.03221.13259.2398-.0045 1.5969-.1336.0856-1.2983-.7496-.1327-.2393.0045-1.5969.1337-.0861z" fill="#b0b8bc"/></g><g><path d="m20.10795 36.83291.1327.2393-.0046 1.5969-.13359.0861-.9487-.5478-.14101-.2446.0045-1.597.1419-.0807z" fill="#dde4e7"/></g><g><path d="m18.34355 35.81421.1411.2441-.0046 1.597-.1419.0812-1.29-.7448-.141-.2445.0046-1.597.1418-.0807z" fill="#dde4e7"/></g><g fill="#dde4e7"><path d="m22.22685 33.34331.13261.2398-.00451 1.5969-.1336.0855-.9487-.5477-.1411-.2441.0046-1.597.14191-.0812z"/><path d="m23.62495 34.15051.141.2446-.0045 1.5969-.1419.0808-.9405-.543-.141-.2441.0045-1.5969.14201-.0812z"/><path d="m29.04015 35.29441c.0999.0577.1745.187.1742.3017l-.0026.8991c-.0003.1147-.0754.1576-.1753.0999l-11.7096-6.7606c-.0998-.0576-.1745-.187-.1742-.3016l.0026-.8991c.0003-.1147.0754-.1576.1753-.1z"/></g><g><path d="m29.24255 37.39381.141.2446-.00449 1.597-.14201.0807-.9487-.5478-.141-.244.0045-1.597.1419-.0812z" fill="#dde4e7"/></g><g><path d="m30.64905 38.20591.1327.2398-.0045 1.5969-.1336.0855-.9488-.5477-.141-.2441.0045-1.597.142-.0812z" fill="#dde4e7"/></g><g><path d="m28.53685 39.34311.1326.2393-.00449 1.5969-.13361.0861-.9487-.5478-.14109-.2446.00459-1.597.1419-.0807z" fill="#dde4e7"/></g><g><path d="m30.63575 42.91111.1327.2393-.0046 1.5969-.1336.0861-1.2983-.7496-.141-.2446.0046-1.5969.1419-.0808z" fill="#b0b8bc"/></g><g><path d="m29.93495 40.15031.1411.2441-.00459 1.597-.14191.0812-.9405-.543-.141-.2446.0045-1.5969.142-.0807z" fill="#dde4e7"/></g><g><path d="m21.49986 39.83941.14099.2446-.0045 1.597-.142.0807-.94039-.543-.14101-.2441.0045-1.5969.142-.0812z" fill="#dde4e7"/></g><g><path d="m21.50605 37.64011.141.2441-.00449 1.5969-.14191.0813-.94039-.543-.1411-.2446.00459-1.5969.1419-.0807z" fill="#dde4e7"/></g><g><path d="m28.53016 41.69551.1327.2392-.00461 1.597-.1336.086-.9487-.5477-.141-.2446.00451-1.597.14189-.0807z" fill="#dde4e7"/></g><g><path d="m18.33735 38.01361.141.2446-.0045 1.5969-.142.0807-1.2899-.7448-.14099-.244.00449-1.597.1419-.0812z" fill="#b0b8bc"/></g><g><path d="m30.62955 45.11041.1326.2398-.0045 1.597-.1336.0855-2.9628-1.7106-.141-.2441.0045-1.5969.142-.0812z" fill="#b0b8bc"/></g><g><g><path d="m17.38475 20.58641c.4187.2417.7544.8231.753 1.3043-.0013.4812-.3392.6737-.7579.432s-.7543-.8231-.753-1.3043c.0014-.4812.3393-.6737.7579-.432z" fill="#dde4e7"/></g><path d="m29.53215 32.09361-.5296.3018-.0056 1.9559-.1187.0679-9.7025-5.6018-.118-.2045.0069-2.4161.1187-.0781z" fill="#61c4f0"/><path d="m30.27845 32.53531c.4187.2417.7543.8231.753 1.2935-.0013.4812-.3392.6737-.7579.432-.4096-.2364-.7452-.8179-.7439-1.299.0014-.4704.3392-.663.7488-.4265z" fill="#dde4e7"/><path d="m28.48905 26.99741.1179.2045-.0096 3.3887-.1187.0673-9.7026-5.6018-.1179-.2039.0083-2.9183-.5262-.9113z" fill="#f9c83a"/><g><path d="m17.38475 7.55641c.4187.2417.7544.8231.753 1.3043-.0013.4812-.3392.6737-.7579.432s-.7543-.8232-.753-1.3043c.0014-.4812.3393-.6737.7579-.432z" fill="#dde4e7"/></g><path d="m28.48905 13.96741.1179.2045-.0096 3.3887-.1187.0673-9.7026-5.6018-.1179-.2039.0083-2.9183-.5262-.9113z" fill="#f9c83a"/><path d="m28.91535 24.54111.1271.2199-.0038 1.3176-.1278.0728-1.2834-.7409-.127-.22.0037-1.3176.1279-.0728z" fill="#61c4f0"/><path d="m29.55765 22.81001-.575.2335-.00309 1.1088-.0548.0315-3.40411-1.9654-.05439-.0945.00449-1.6104.0548-.0314z" fill="#61c4f0"/><path d="m28.38465 18.80801.127.22-.007 2.4683-.1278.0728-9.64799-5.5703-.12701-.2199.007-2.4683.1278-.0729z" fill="#f9c83a"/><g><path d="m30.30405 23.24091c.4187.2418.7543.8232.753 1.3044-.0014.4811-.3393.6737-.758.4319-.4095-.2364-.7452-.8178-.7438-1.299.0013-.4812.3392-.6737.7488-.4373z" fill="#dde4e7"/></g></g></g><g><g><path d="m27.91855 9.57971c.0808.0466.1473.1601.1471.253l-.0019.6766c-.0003.0928-.0673.1292-.1481.0825l-1.6264-.939c-.0808-.0467-.1474-.1602-.1471-.253l.0019-.6765c.0002-.0929.0672-.1293.148-.0826zm.05821.8794.0019-.6766c.0001-.0375-.0262-.0849-.0604-.1046l-1.6264-.9391c-.0342-.0197-.0607-.0028-.0608.0347l-.0019.6766c-.0002.0374.0262.0847.0603.1045l1.6265.939c.03419.0197.06069.0029.0608-.0345" fill="#7eb442"/></g><g><path d="m27.30445 9.39861-.00189.6658-.9895-.5713.00179-.6658z" fill="#7eb442"/></g></g></g></svg>