<svg id="Layer_1" enable-background="new 0 0 50 50" height="512" viewBox="0 0 50 50" width="512" xmlns="http://www.w3.org/2000/svg"><g><g enable-background="new"><g><path d="m15.6861 36.0419 1.6221-.9427c-.0013.4475.3137.9927.7104 1.2218l-1.6221.9427c-.3967-.2291-.7117-.7743-.7104-1.2218z" fill="#aeaeaf"/></g><g><path d="m16.3965 37.2637 1.6222-.9427 15.4955 8.9463-1.6221.9427z" fill="#aeaeaf"/></g><g><path d="m32.6947 14.9024 1.6222-.9427-.0877 30.9088-1.6221.9427z" fill="#fff"/></g><g><path d="m34.0244 45.3192-1.6222.9427c-.1293.0751-.3095.064-.5102-.0518l1.6221-.9427c.2008.1158.381.1269.5103.0518z" fill="#aeaeaf"/></g><g><path d="m31.9844 13.6719 1.6221-.9427c.3968.2291.7117.783.7104 1.2305l-1.6221.9427c.0012-.4476-.3137-1.0014-.7104-1.2305z" fill="#fff"/></g><g><path d="m34.0244 45.3192-1.6222.9427c.1264-.0735.2042-.2294.2048-.4506l1.6221-.9427c-.0005.2212-.0783.3771-.2047.4506z" fill="#fff"/></g><g><path d="m15.7737 5.133 1.6222-.9427-.0877 30.9089-1.6221.9427z" fill="#aeaeaf"/></g><g><path d="m15.9823 4.6759 1.6221-.9427c-.1286.0747-.2079.2337-.2085.4571l-1.6222.9427c.0007-.2233.08-.3823.2086-.4571z" fill="#aeaeaf"/></g><g><path d="m15.9823 4.6759 1.6221-.9427c.1291-.075.3078-.0652.5065.0496l-1.6221.9427c-.1988-.1147-.3775-.1246-.5065-.0496z" fill="#fff"/></g><g><path d="m32.1971 11.3172c.7641.4412 1.3866 1.5195 1.3841 2.4058l-.0972 34.2856c-.0025.8868-.6291 1.2435-1.3932.8023l-15.8997-9.1797c-.7715-.4454-1.394-1.5233-1.3915-2.4101l.0972-34.2856c.0025-.8863.6291-1.2435 1.4005-.7981zm.41 34.494.0876-30.9089c.0013-.4475-.3136-1.0014-.7104-1.2305l-15.4955-8.9463c-.3968-.2291-.7138-.04-.715.4075l-.0876 30.9089c-.0013.4475.3137.9927.7104 1.2218l15.4955 8.9463c.3968.2291.7137.0487.715-.3988" fill="#4f4d4d"/></g><g><path d="m31.9844 13.6719c.3968.2291.7117.783.7104 1.2305l-.0876 30.9089c-.0013.4475-.3182.6279-.715.3988l-15.4956-8.9464c-.3968-.2291-.7117-.7743-.7104-1.2218l.0875-30.9089c.0013-.4475.3183-.6366.715-.4075z" fill="#7bd3f7"/></g></g><path d="m33.1358 12.2978c.2725.4484.448.9575.4419 1.4211l-.092 34.2937c0 .4372-.1611.7479-.4143.8974l1.6226-.9434c.2531-.15.4143-.4608.4143-.8979l.0921-34.2931c0-.463-.1747-.9715-.445-1.4199z" fill="#686868"/><path d="m33.8194 10.3704-15.9038-9.172c-.3798-.2304-.7365-.2534-.9897-.104l-1.6226.944c.2532-.1495.6099-.1264.9897.1034l15.9038 9.172c.3623.2141.6904.5743.9389.9839l1.6196-.9423c-.247-.4102-.5731-.7709-.9359-.985z" fill="#686868"/><g><path d="m31.1255 33.578c.0806-.0188.1535-.0551.2181-.1048.0011-.0009.0023-.0015.0034-.0024-.0832.0647-.1803.1073-.29.1189.0234-.0025.0462-.0065.0685-.0117z" fill="#fff"/></g><g><path d="m31.1255 33.578c.0806-.0188.1535-.0551.2181-.1048-.0628.052-.1363.0873-.2181.1048z" fill="#fff"/></g><g enable-background="new"><g><path d="m18.1675 26.0195c.0155.0246.0212.0331.0366.0565-.0124-.0186-.0247-.0374-.0366-.0565z" fill="#fff"/></g><g><path d="m18.2761 26.1774c-.0292-.0399-.0351-.0465-.0701-.0987.0174.0248.0355.0509.0701.0987z" fill="#fff"/></g><g><path d="m18.2199 26.0988c-.0047-.0069-.0096-.0137-.0143-.0207l.0004.0006z" fill="#fff"/></g><g><path d="m18.3097 26.2205c-.0114-.0142-.0226-.0286-.0336-.0431.0109.0147.0223.0288.0336.0431z" fill="#fff"/></g><g><path d="m18.774 26.6554c-.1695-.1117-.3276-.2609-.4644-.4348.1403.1753.3235.3407.4644.4348z" fill="#fff"/></g><g><path d="m30.563 22.3643c.5785.334 1.044 1.1451 1.0421 1.8051l-.0246 8.6799c-.0001.0196-.0006.0384-.0015.0572-.0518.2896-.0569.3041-.0624.3182-.0083.0203-.0131.0314-.0182.0427-.0095.0196-.0152.0309-.0212.0419-.0375.0671-.0804.12-.1302.1614-1.6637-2.8056-3.577-5.8492-4.9733-7.9699-.0912.0331-.1823.0754-.2735.1084 1.6427 2.9223 3.7482 6.4159 4.7291 7.9621-.0421-.0109-.0861-.0255-.1318-.0436-.0235-.0095-.038-.0158-.0527-.0225-.0815-.0403-.0972-.0489-.1132-.0581-12.4669-7.2267-11.6749-6.6834-11.9754-6.9664 2.0934-.9534 3.5376-1.7323 4.7528-2.4808.4612.7186.925 1.4333 1.3906 2.1465 1.6375-.6154 4.6931-1.8853 6.1752-2.7985-.8902.1462-3.4048.769-6.1723 1.7683-2.6072-3.9763-5.2357-7.678-6.138-8.8756 1.0727 1.9082 3.3695 5.6072 4.4731 7.3351-1.3354.4796-3.1261 1.2422-5.0009 2.2056-.128-.249-.2301-.588-.2293-.8841l.0246-8.6799c.0019-.66.4745-.9295 1.053-.5955z" fill="#fff"/></g><g><path d="m31.3438 33.4683c-.13.1099-.31.1602-.51.1001-.9873-1.5399-3.0693-4.9929-4.73-7.96-.47.1797-.93.3599-1.4.54-.47-.7202-.93-1.4302-1.39-2.1499-1.5979.979-3.055 1.7029-4.76 2.48-.3718-.3494-.441-.5795-.52-.7002 1.1556-.5643 2.7635-1.4011 5-2.2002-1.1861-1.8598-3.392-5.4159-4.47-7.3398 1.5715 2.0865 4.5184 6.4122 6.14 8.8799 2.6808-.9724 5.2162-1.6057 6.17-1.7695-.9191.5763-3.245 1.636-4.5 2.1499 1.4924 2.2799 3.3882 5.2957 4.97 7.9697z" fill="#dbdfe5"/></g></g><g><path d="m17.9174 25.4984c.0856.2477.1627.3577.2139.4613-.0865-.1498-.1606-.302-.2139-.4613z" fill="#fff"/></g></g></svg>