<svg id="icon" height="512" viewBox="0 0 128 128" width="512" xmlns="http://www.w3.org/2000/svg"><path d="m105.77 35.068a5.015 5.015 0 0 0 -7.961-.107l-6.772 7.2a1.814 1.814 0 0 0 .753 2.807l.427.17a4.87 4.87 0 0 0 5.521-1.377l3.1-3.663a2.614 2.614 0 0 1 4 .281l13.323 18.421 8.839 1.223z" fill="#e1e6e9"/><path d="m127 61.023a1 1 0 0 1 -.137-.009l-8.839-1.219a1 1 0 0 1 -.674-.4l-13.322-18.42a1.615 1.615 0 0 0 -2.47-.173l-3.058 3.609a5.862 5.862 0 0 1 -6.654 1.66l-.427-.169a2.813 2.813 0 0 1 -1.169-4.355l6.828-7.271a6.01 6.01 0 0 1 9.471.167l21.211 24.932a1 1 0 0 1 -.76 1.648zm-8.279-3.151 5.819.8-19.532-22.957c-.014-.017-.027-.033-.04-.05a3.986 3.986 0 0 0 -3.165-1.616 3.845 3.845 0 0 0 -3.209 1.53l-6.828 7.27a.8.8 0 0 0 -.09.648.809.809 0 0 0 .484.545l.427.169a3.864 3.864 0 0 0 4.388-1.094l3.1-3.663a3.612 3.612 0 0 1 5.573.341z" fill="#2f3a5a"/><path d="m22.23 35.068a5.015 5.015 0 0 1 7.961-.107l6.772 7.2a1.814 1.814 0 0 1 -.753 2.807l-.427.17a4.87 4.87 0 0 1 -5.521-1.377l-3.1-3.663a2.614 2.614 0 0 0 -4 .281l-13.323 18.421-8.839 1.223z" fill="#e1e6e9"/><path d="m1 61.023a1 1 0 0 1 -.762-1.648l21.211-24.932a6.014 6.014 0 0 1 9.527-.1l6.715 7.138a2.823 2.823 0 0 1 .564 2.537 2.79 2.79 0 0 1 -1.675 1.882l-.429.17a5.863 5.863 0 0 1 -6.651-1.659l-3.1-3.663a1.581 1.581 0 0 0 -1.231-.442 1.61 1.61 0 0 0 -1.2.664l-13.32 18.42a1 1 0 0 1 -.674.4l-8.838 1.224a1 1 0 0 1 -.137.009zm25.253-26.974h-.053a3.986 3.986 0 0 0 -3.165 1.616c-.013.017-.026.034-.04.05l-19.535 22.959 5.819-.8 13.072-18.074a3.614 3.614 0 0 1 5.53-.389l3.145 3.71a3.864 3.864 0 0 0 4.387 1.095l.429-.17a.815.815 0 0 0 .337-1.26l-6.715-7.138a4.048 4.048 0 0 0 -3.211-1.599z" fill="#2f3a5a"/><path d="m95.174 94.938a29.619 29.619 0 0 1 -8.2-1.274c-.567-.182-1.124-.375-1.648-.589a19.5 19.5 0 0 1 -3.339-1.691 18.294 18.294 0 0 1 -2.676-1.991c-7.739-6.882-7.482-17.725-7.482-17.725s-.213-2.668 3.522-8.529 23.28-4.281 23.28-4.281l3.179.471 3.757.567 4.142.61 1.884.278 7.161 1.07v11.546s.288 22.138-23.58 21.538z" fill="#d87674"/><g opacity=".5"><path d="m105.567 59.9-23.58 31.485a18.294 18.294 0 0 1 -2.676-1.991l22.5-30.066z" fill="#fff"/></g><g opacity=".5"><path d="m111.593 60.784-24.618 32.881c-.567-.182-1.124-.375-1.648-.589l24.382-32.57z" fill="#fff"/></g><path d="m96.108 95.951q-.476 0-.961-.012c-24.047-.598-24.317-23.039-24.312-24.246-.024-.516.037-3.383 3.673-9.1 3.949-6.2 22.146-4.9 24.21-4.732l21.03 3.125v12.414c0 .385.053 9.825-6.628 16.429-4.108 4.071-9.828 6.122-17.012 6.122zm-3.108-36.301c-6.324 0-14.73.756-16.808 4.021-3.434 5.395-3.363 7.908-3.362 7.932v.086c-.02.885-.208 21.688 22.361 22.25 7.068.173 12.629-1.685 16.518-5.528 6.083-6.013 6.035-14.9 6.034-14.994v-10.7l-19.26-2.864c-1.337-.111-3.283-.203-5.483-.203z" fill="#2f3a5a"/><path d="m32.826 94.938a29.619 29.619 0 0 0 8.2-1.274c.567-.182 1.124-.375 1.648-.589a19.5 19.5 0 0 0 3.339-1.691 18.294 18.294 0 0 0 2.676-1.991c7.739-6.882 7.482-17.725 7.482-17.725s.214-2.665-3.521-8.531-23.28-4.281-23.28-4.281l-3.179.471-3.757.567-4.142.61-1.884.278-7.161 1.07v11.548s-.289 22.138 23.579 21.538z" fill="#d87674"/><g opacity=".5"><path d="m42.662 59.9-23.579 31.485a18.294 18.294 0 0 1 -2.676-1.991l22.5-30.066z" fill="#fff"/></g><g opacity=".5"><path d="m48.688 60.784-24.617 32.881c-.567-.182-1.124-.375-1.648-.589l24.377-32.57z" fill="#fff"/></g><path d="m31.892 95.951c-7.184 0-12.9-2.056-17.012-6.117-6.68-6.605-6.633-16.044-6.628-16.442v-12.402l20.965-3.118c2.127-.177 20.327-1.48 24.275 4.725 3.636 5.713 3.7 8.58 3.673 9.1 0 1.207-.267 23.648-24.312 24.246-.323.004-.644.008-.961.008zm-21.64-33.236v10.685c0 .1-.029 9.027 6.048 15.02 3.889 3.836 9.461 5.678 16.5 5.515 22.569-.562 22.381-21.365 22.361-22.25v-.052-.038c0-.114.008-2.633-3.362-7.928-2.8-4.4-17.088-4.245-22.358-3.813z" fill="#2f3a5a"/><path d="m72.606 71.773s-4.394.008-3.8-5.336 13.064-10.214 31.594-9.146 26.6 2.732 26.6 2.732v4.435s-3.207 1.266-3.563 6.016-5.344 3.325-5.7 2.019 0-9.382-7.126-10.214-28.266-3.279-34.442 3.173a14.144 14.144 0 0 0 -3.563 6.321z" fill="#e1e6e9"/><path d="m120.4 74.759c-1.535 0-3.291-.756-3.632-2a8.138 8.138 0 0 1 -.168-1.143c-.271-2.508-.836-7.726-6.109-8.341-18.415-2.147-29.721-1.182-33.6 2.871a13.248 13.248 0 0 0 -3.31 5.849 1 1 0 0 1 -.974.78 5.167 5.167 0 0 1 -3.579-1.6 5.979 5.979 0 0 1 -1.217-4.843c.738-6.639 15.082-11.043 32.644-10.033 18.388 1.061 26.414 2.682 26.746 2.75a1 1 0 0 1 .8.979v4.435a1 1 0 0 1 -.633.93c-.1.042-2.632 1.146-2.933 5.161-.182 2.424-1.532 3.991-3.611 4.191-.138.008-.278.014-.424.014zm-26.527-14.639a149.577 149.577 0 0 1 16.854 1.167c6.857.8 7.59 7.565 7.865 10.113.036.334.077.713.109.831a2.8 2.8 0 0 0 2.266.461c.881-.224 1.376-.995 1.474-2.292a7.992 7.992 0 0 1 3.559-6.54v-3a236.24 236.24 0 0 0 -25.66-2.565c-19.2-1.107-30.077 4.083-30.54 8.256a4.133 4.133 0 0 0 .7 3.273 2.86 2.86 0 0 0 1.37.828 15.361 15.361 0 0 1 3.6-5.916c3.39-3.536 10.566-4.616 18.403-4.616z" fill="#2f3a5a"/><path d="m55.394 71.773s4.394.008 3.8-5.336-13.064-10.214-31.594-9.146-26.6 2.732-26.6 2.732v4.435s3.207 1.266 3.563 6.016 5.344 3.325 5.7 2.019 0-9.382 7.126-10.214 28.266-3.279 34.442 3.173a14.144 14.144 0 0 1 3.563 6.321z" fill="#e1e6e9"/><g fill="#2f3a5a"><path d="m7.6 74.759c-.143 0-.282-.006-.42-.02-2.079-.2-3.43-1.767-3.611-4.191-.309-4.077-2.91-5.148-2.936-5.16a1 1 0 0 1 -.633-.93v-4.435a1 1 0 0 1 .8-.979c.332-.068 8.358-1.689 26.746-2.75 17.562-1.011 31.905 3.394 32.644 10.033a5.979 5.979 0 0 1 -1.217 4.843 5.166 5.166 0 0 1 -3.579 1.6 1 1 0 0 1 -.974-.78 13.144 13.144 0 0 0 -3.28-5.82c-3.911-4.081-15.216-5.047-33.632-2.9-5.273.615-5.838 5.833-6.109 8.341a8.138 8.138 0 0 1 -.168 1.143c-.343 1.246-2.099 2.005-3.631 2.005zm-5.6-10.899a7.992 7.992 0 0 1 3.56 6.54c.1 1.3.593 2.068 1.474 2.292a2.637 2.637 0 0 0 2.291-.524c.007-.055.048-.434.084-.768.275-2.547 1.008-9.312 7.865-10.113 12.338-1.439 29.418-2.645 35.28 3.474a15.339 15.339 0 0 1 3.572 5.887 2.86 2.86 0 0 0 1.37-.828 4.133 4.133 0 0 0 .7-3.273c-.463-4.173-11.34-9.365-30.54-8.256a236.24 236.24 0 0 0 -25.656 2.564z"/><path d="m59.193 67.436a1 1 0 0 1 -.806-1.591 7.276 7.276 0 0 1 4.786-2.734c2.1-.2 4.229.668 6.311 2.59a1 1 0 0 1 -1.357 1.47c-1.646-1.52-3.246-2.219-4.761-2.069a5.322 5.322 0 0 0 -3.366 1.925 1 1 0 0 1 -.807.409z"/></g></svg>