<?xml version="1.0" encoding="iso-8859-1"?>
<!-- Generator: Adobe Illustrator 18.1.1, SVG Export Plug-In . SVG Version: 6.00 Build 0)  -->
<svg version="1.1" id="Capa_1" xmlns="http://www.w3.org/2000/svg" xmlns:xlink="http://www.w3.org/1999/xlink" x="0px" y="0px"
	 viewBox="0 0 369.946 369.946" style="enable-background:new 0 0 369.946 369.946;" xml:space="preserve">
<g>
	<path style="fill:#010002;" d="M289.393,104.42c-36.38,0-67.169,24.255-77.134,57.431c-6.576-7.745-16.355-12.68-27.286-12.68
		c-10.931,0-20.717,4.935-27.286,12.68c-9.965-33.176-40.754-57.431-77.134-57.431C36.135,104.42,0,140.556,0,184.973
		s36.135,80.553,80.553,80.553s80.553-36.135,80.553-80.553c0-13.163,10.705-23.867,23.867-23.867
		c13.157,0,23.867,10.705,23.867,23.867c0,44.417,36.135,80.553,80.553,80.553s80.553-36.135,80.553-80.553
		S333.811,104.42,289.393,104.42z"/>
</g>
<g>
</g>
<g>
</g>
<g>
</g>
<g>
</g>
<g>
</g>
<g>
</g>
<g>
</g>
<g>
</g>
<g>
</g>
<g>
</g>
<g>
</g>
<g>
</g>
<g>
</g>
<g>
</g>
<g>
</g>
</svg>
